<svg width="180" height="1836" viewBox="0 0 180 1836" fill="none" xmlns="http://www.w3.org/2000/svg" preserveAspectRatio="none">
<path d="M0 20C0 8.9543 8.95431 0 20 0H160C171.046 0 180 8.95431 180 20V160C180 171.046 171.046 180 160 180H20C8.9543 180 0 171.046 0 160V20Z" fill="black"/>
<rect width="180" height="180" rx="4" fill="#7289DA"/>
<path fill-rule="evenodd" clip-rule="evenodd" d="M120.942 138.494C120.942 138.494 116.935 133.708 113.596 129.479C128.176 125.361 133.741 116.234 133.741 116.234C129.178 119.239 124.837 121.354 120.942 122.801C115.377 125.138 110.034 126.696 104.803 127.587C94.1181 129.59 84.3236 129.033 75.976 127.475C69.6319 126.251 64.1781 124.47 59.6147 122.689C57.0548 121.688 54.2723 120.463 51.4897 118.905C51.3228 118.794 51.1558 118.71 50.9889 118.627C50.8219 118.543 50.655 118.46 50.488 118.349C50.2654 118.237 50.1541 118.126 50.0429 118.015L50.0428 118.015C48.0394 116.902 46.9264 116.122 46.9264 116.122C46.9264 116.122 52.2688 125.027 66.4041 129.256C63.0651 133.486 58.9469 138.494 58.9469 138.494C34.3493 137.715 25 121.576 25 121.576C25 85.7372 41.0274 56.6876 41.0274 56.6876C57.0548 44.667 72.3031 45.0009 72.3031 45.0009L73.4161 46.3365C53.3818 52.1242 44.1438 60.917 44.1438 60.917C44.1438 60.917 46.5925 59.5814 50.7106 57.6893C62.6199 52.4581 72.0805 51.0112 75.976 50.6773C76.0604 50.6632 76.143 50.6492 76.2243 50.6353L76.2256 50.6351C76.787 50.5395 77.2852 50.4547 77.8682 50.4547C84.6575 49.5643 92.3373 49.3417 100.351 50.2321C110.925 51.4564 122.277 54.5728 133.853 60.917C133.853 60.917 125.06 52.5694 106.139 46.7817L107.697 45.0009C107.697 45.0009 122.945 44.667 138.973 56.6876C138.973 56.6876 155 85.7372 155 121.576C155 121.576 145.539 137.715 120.942 138.494ZM69.1874 86.5164C62.8432 86.5164 57.8346 92.0815 57.8346 98.8709C57.8346 105.66 62.9545 111.225 69.1874 111.225C75.5315 111.225 80.5401 105.66 80.5401 98.8709C80.6514 92.0815 75.5315 86.5164 69.1874 86.5164ZM98.4596 98.8709C98.4596 92.0815 103.468 86.5164 109.812 86.5164C116.156 86.5164 121.165 92.0815 121.165 98.8709C121.165 105.66 116.156 111.225 109.812 111.225C103.579 111.225 98.4596 105.66 98.4596 98.8709Z" fill="white"/>
<path d="M0 204C0 192.954 8.95431 184 20 184H160C171.046 184 180 192.954 180 204V344C180 355.046 171.046 364 160 364H20C8.9543 364 0 355.046 0 344V204Z" fill="black"/>
<rect y="184" width="180" height="180" rx="4" fill="white"/>
<path fill-rule="evenodd" clip-rule="evenodd" d="M152.283 243.302C150.788 237.672 146.384 233.239 140.789 231.734C130.652 229 90 229 90 229C90 229 49.3477 229 39.2099 231.734C33.6162 233.239 29.211 237.672 27.716 243.302C25 253.506 25 274.795 25 274.795C25 274.795 25 296.084 27.716 306.289C29.211 311.919 33.6162 316.352 39.2099 317.857C49.3477 320.591 90 320.591 90 320.591C90 320.591 130.652 320.591 140.789 317.857C146.384 316.352 150.788 311.919 152.283 306.289C155 296.084 155 274.795 155 274.795C155 274.795 155 253.506 152.283 243.302Z" fill="#FF0000"/>
<path fill-rule="evenodd" clip-rule="evenodd" d="M76.7041 294.126L110.681 274.797L76.7041 255.467V294.126Z" fill="white"/>
<path d="M0 388C0 376.954 8.95431 368 20 368H160C171.046 368 180 376.954 180 388V528C180 539.046 171.046 548 160 548H20C8.9543 548 0 539.046 0 528V388Z" fill="black"/>
<rect y="368" width="180" height="180" rx="4" fill="#1DA1F2"/>
<path fill-rule="evenodd" clip-rule="evenodd" d="M65.8363 511.206C114.892 511.206 141.735 470.526 141.735 435.308C141.735 434.163 141.735 433.019 141.683 431.875C146.885 428.129 151.411 423.395 155 418.037C150.214 420.17 145.064 421.574 139.654 422.251C145.168 418.973 149.382 413.719 151.411 407.477C146.26 410.546 140.538 412.731 134.452 413.927C129.562 408.725 122.643 405.5 114.996 405.5C100.274 405.5 88.3093 417.465 88.3093 432.187C88.3093 434.268 88.5694 436.296 88.9856 438.273C66.8247 437.181 47.1609 426.516 33.9996 410.39C31.7107 414.344 30.4102 418.921 30.4102 423.811C30.4102 433.071 35.1441 441.238 42.2709 446.024C37.9012 445.868 33.7915 444.672 30.2021 442.695C30.2021 442.799 30.2021 442.903 30.2021 443.059C30.2021 455.96 39.4098 466.781 51.5826 469.225C49.3457 469.85 47.0048 470.162 44.5598 470.162C42.8431 470.162 41.1785 470.006 39.5658 469.694C42.9472 480.306 52.8311 488.005 64.4838 488.213C55.3281 495.392 43.8315 499.658 31.3465 499.658C29.2137 499.658 27.0808 499.554 25 499.294C36.7567 506.785 50.8023 511.206 65.8363 511.206Z" fill="white"/>
<path d="M0 572C0 560.954 8.95431 552 20 552H160C171.046 552 180 560.954 180 572V712C180 723.046 171.046 732 160 732H20C8.9543 732 0 723.046 0 712V572Z" fill="black"/>
<rect y="552" width="180" height="180" rx="4" fill="#9146FF"/>
<g clip-path="url(#clip0)">
<path d="M137.143 642.357L118.572 660.929H100L83.7501 677.179V660.929H62.8572V591.286H137.143V642.357Z" fill="white"/>
<path d="M58.2143 582L35 605.214V688.786H62.8571V712L86.0714 688.786H104.643L146.429 647V582H58.2143ZM137.143 642.357L118.571 660.929H100L83.75 677.179V660.929H62.8571V591.286H137.143V642.357Z" fill="black"/>
<path d="M123.214 607.536H113.929V635.393H123.214V607.536Z" fill="black"/>
<path d="M97.6785 607.536H88.3928V635.393H97.6785V607.536Z" fill="black"/>
</g>
<path d="M0 756C0 744.954 8.95431 736 20 736H160C171.046 736 180 744.954 180 756V896C180 907.046 171.046 916 160 916H20C8.9543 916 0 907.046 0 896V756Z" fill="black"/>
<rect y="736" width="180" height="180" rx="4" fill="#1877F2"/>
<path fill-rule="evenodd" clip-rule="evenodd" d="M73.5263 915.979V846.505H50V819.126H73.4V799.137C73.4 775.863 87.5789 763.2 108.326 763.2C115.374 763.221 122.416 763.622 129.421 764.4V788.684H115.084C103.811 788.684 101.632 794.021 101.632 801.884V819.253H128.632L125.126 846.505H101.632V915.979H73.5263Z" fill="white"/>
<rect y="920" width="180" height="180" rx="4" fill="#24292E"/>
<mask id="mask0" mask-type="alpha" maskUnits="userSpaceOnUse" x="10" y="930" width="163" height="159">
<path fill-rule="evenodd" clip-rule="evenodd" d="M10 930H172.895V1088.87H10V930Z" fill="white"/>
</mask>
<g mask="url(#mask0)">
<path fill-rule="evenodd" clip-rule="evenodd" d="M89.9959 945C54.1042 945 24.9998 974.1 24.9998 1010C24.9998 1038.72 43.622 1063.08 69.4544 1071.68C72.7064 1072.27 73.8915 1070.26 73.8915 1068.54C73.8915 1067 73.8356 1062.91 73.8037 1057.49C55.7242 1061.41 51.9096 1048.77 51.9096 1048.77C48.9529 1041.26 44.6914 1039.27 44.6914 1039.27C38.7899 1035.23 45.1383 1035.31 45.1383 1035.31C51.6622 1035.78 55.0938 1042.01 55.0938 1042.01C60.8915 1051.94 70.3043 1049.08 74.0112 1047.42C74.6017 1043.21 76.2776 1040.35 78.137 1038.73C63.7046 1037.09 48.5299 1031.51 48.5299 1006.6C48.5299 999.506 51.0637 993.704 55.2215 989.159C54.5511 987.515 52.3206 980.908 55.8559 971.958C55.8559 971.958 61.3145 970.21 73.7319 978.621C78.9151 977.177 84.4774 976.459 90.0038 976.431C95.5223 976.459 101.085 977.177 106.276 978.621C118.685 970.21 124.132 971.958 124.132 971.958C127.679 980.908 125.449 987.515 124.778 989.159C128.944 993.704 131.462 999.506 131.462 1006.6C131.462 1031.57 116.263 1037.07 101.783 1038.67C104.117 1040.68 106.196 1044.65 106.196 1050.71C106.196 1059.4 106.116 1066.41 106.116 1068.54C106.116 1070.28 107.285 1072.3 110.585 1071.67C136.39 1063.05 155 1038.71 155 1010C155 974.1 125.895 945 89.9959 945" fill="white"/>
</g>
<rect y="1104" width="180" height="180" rx="20" fill="white"/>
<path d="M89.4543 1262.91C127.813 1262.91 158.909 1231.81 158.909 1193.45C158.909 1155.1 127.813 1124 89.4543 1124C51.0957 1124 20 1155.1 20 1193.45C20 1231.81 51.0957 1262.91 89.4543 1262.91Z" fill="#DB4437"/>
<path d="M89.4543 1124.79C127.654 1124.79 158.71 1155.65 158.909 1193.85V1193.45C158.909 1155.06 127.853 1124 89.4543 1124C51.056 1124 20 1155.06 20 1193.45V1193.85C20.1984 1155.65 51.2544 1124.79 89.4543 1124.79Z" fill="white" fill-opacity="0.2"/>
<path d="M89.4543 1262.11C51.2544 1262.11 20.1984 1231.26 20 1193.06V1193.45C20 1231.85 51.056 1262.91 89.4543 1262.91C127.853 1262.91 158.909 1231.85 158.909 1193.45V1193.06C158.71 1231.26 127.654 1262.11 89.4543 1262.11Z" fill="#3E2723" fill-opacity="0.2"/>
<path d="M130.532 1174.5H121.106V1189.88H111.68L91.8356 1170.04C86.3785 1164.88 79.2346 1161.8 70.7016 1161.8C58.3983 1161.8 47.6825 1168.85 42.523 1179.17C40.3402 1183.43 39.1495 1188.2 39.1495 1193.36C39.1495 1198.51 40.3402 1203.28 42.523 1207.54C44.2098 1210.82 46.3926 1213.79 49.0716 1216.27L57.803 1225.01L96.7966 1264L149.582 1253.28L160.595 1204.37L130.532 1174.5Z" fill="url(#paint0_linear)"/>
<path d="M143.133 1187.1H130.532V1174.5H121.006V1187.1H108.405V1196.63H121.006V1209.23H130.532V1196.63H143.133" fill="#EEEEEE"/>
<path opacity="0.4" d="M121.006 1174.5H130.432V1175.3H121.006V1174.5ZM108.405 1187.1H121.006V1187.9H108.405V1187.1ZM130.532 1187.1H143.133V1187.9H130.532V1187.1Z" fill="white"/>
<path opacity="0.1" d="M121.006 1209.23H130.432V1210.02H121.006V1209.23ZM108.405 1196.63H121.006V1197.42H108.405V1196.63ZM130.532 1196.63H143.133V1197.42H130.532V1196.63Z" fill="#3E2723"/>
<path d="M70.5032 1199.41V1187.7H100.071C100.468 1189.68 100.865 1191.57 100.865 1194.15C100.865 1212.21 88.7598 1225.01 70.6024 1225.01C53.1397 1225.01 39.0504 1210.82 39.0504 1193.45C39.0504 1176.09 53.2389 1161.9 70.6024 1161.9C79.1354 1161.9 86.2793 1164.98 91.7364 1170.14L82.8066 1178.87C80.5245 1176.69 76.5557 1174.21 70.7017 1174.21C60.2835 1174.21 51.7506 1182.94 51.7506 1193.55C51.7506 1204.17 60.2835 1212.9 70.7017 1212.9C82.8066 1212.9 87.2715 1204.57 88.0652 1199.61L70.5032 1199.41Z" fill="#EEEEEE"/>
<path opacity="0.4" d="M70.5032 1213.6C82.6081 1213.6 87.073 1205.26 87.8668 1200.3H87.6683C86.5769 1205.36 81.9135 1212.8 70.5032 1212.8C60.1843 1212.8 51.7505 1204.37 51.5521 1193.85C51.5521 1193.95 51.5521 1194.15 51.5521 1194.25C51.5521 1204.96 60.085 1213.6 70.5032 1213.6ZM70.5032 1188.49H100.071C100.468 1190.38 100.765 1192.16 100.865 1194.45V1194.05C100.865 1191.47 100.567 1189.58 100.071 1187.6H70.5032V1188.49ZM70.5032 1162.7C78.8377 1162.7 85.7831 1165.67 91.141 1170.53L91.5379 1170.14C86.0808 1164.98 78.9369 1161.9 70.404 1161.9C52.9412 1161.9 38.8519 1176.09 38.8519 1193.45C38.8519 1193.55 38.8519 1193.75 38.8519 1193.85C39.1495 1176.59 53.2388 1162.7 70.5032 1162.7Z" fill="white"/>
<path opacity="0.1" d="M70.5032 1174.11C60.085 1174.11 51.5521 1182.84 51.5521 1193.45C51.5521 1193.55 51.5521 1193.75 51.5521 1193.85C51.7505 1183.33 60.1843 1174.9 70.5032 1174.9C76.4564 1174.9 80.4252 1177.48 82.6081 1179.56L91.5379 1170.83C91.4387 1170.73 91.2402 1170.53 91.141 1170.44L82.6081 1178.67C80.4252 1176.69 76.4564 1174.11 70.5032 1174.11ZM70.5032 1225.01C53.2388 1225.01 39.1495 1211.12 38.9511 1193.85C38.9511 1193.95 38.9511 1194.15 38.9511 1194.25C38.9511 1211.71 53.1396 1225.8 70.5032 1225.8C88.7597 1225.8 100.765 1213 100.765 1194.94V1194.55C100.666 1212.41 88.6605 1225.01 70.5032 1225.01ZM70.5032 1199.41V1200.2H87.6683C87.7675 1199.9 87.7675 1199.71 87.8667 1199.41H70.5032Z" fill="#3E2723"/>
<path d="M89.4543 1262.91C127.813 1262.91 158.909 1231.81 158.909 1193.45C158.909 1155.1 127.813 1124 89.4543 1124C51.0957 1124 20 1155.1 20 1193.45C20 1231.81 51.0957 1262.91 89.4543 1262.91Z" fill="url(#paint1_radial)"/>
<path d="M0 1308C0 1296.95 8.95431 1288 20 1288H160C171.046 1288 180 1296.95 180 1308V1448C180 1459.05 171.046 1468 160 1468H20C8.9543 1468 0 1459.05 0 1448V1308Z" fill="black"/>
<rect y="1288" width="180" height="180" rx="4" fill="#222222"/>
<path fill-rule="evenodd" clip-rule="evenodd" d="M25 1416.39L51.608 1313L155 1339.61L128.392 1443L25 1416.39ZM77.3077 1385.49L97.4894 1390.68L102.683 1370.5L82.5016 1365.31L77.3077 1385.49Z" fill="url(#paint2_linear)"/>
<rect y="1472" width="180" height="180" rx="20" fill="black"/>
<rect y="1472" width="180" height="180" rx="4" fill="#04D168"/>
<g clip-path="url(#clip1)">
<path d="M141.2 1605.87C149.638 1599.85 155 1590.93 155 1580.96C155 1562.89 137.42 1548.21 115.754 1548.21C94.0871 1548.21 76.5076 1562.89 76.5076 1580.96C76.5076 1599.02 94.0871 1613.7 115.754 1613.7C120.456 1613.7 124.939 1612.99 129.114 1611.76C129.861 1611.54 130.652 1611.63 131.312 1612.03L139.838 1616.95C141.727 1618.05 142.826 1617.21 142.255 1615.1L140.409 1608.07C140.233 1607.19 140.541 1606.36 141.2 1605.87ZM102.701 1575.77C99.7564 1575.77 97.3832 1573.4 97.3832 1570.45C97.3832 1567.51 99.7564 1565.13 102.701 1565.13C105.646 1565.13 108.019 1567.51 108.019 1570.45C108.019 1573.35 105.646 1575.77 102.701 1575.77ZM128.719 1575.77C125.774 1575.77 123.401 1573.4 123.401 1570.45C123.401 1567.51 125.774 1565.13 128.719 1565.13C131.663 1565.13 134.036 1567.51 134.036 1570.45C134.036 1573.35 131.663 1575.77 128.719 1575.77Z" fill="white"/>
<path d="M72.1569 1512C46.0953 1512 25 1529.58 25 1551.25C25 1563.16 31.3726 1573.84 41.4368 1581.04C42.4037 1581.7 42.7992 1582.89 42.5355 1584.03L40.3381 1592.29C39.6788 1594.8 40.9533 1595.77 43.1947 1594.45L53.3029 1588.56C54.2258 1588.03 55.2806 1587.9 56.2914 1588.21C61.2576 1589.7 66.6193 1590.49 72.2008 1590.49C73.0358 1590.49 73.9148 1590.49 74.7498 1590.45C73.6951 1587.37 73.1677 1584.12 73.1677 1580.78C73.1677 1561.05 92.5051 1545.05 116.325 1545.05C117.16 1545.05 117.995 1545.05 118.786 1545.09C115.183 1526.37 95.6694 1512 72.1569 1512ZM56.3354 1544.92C52.8634 1544.92 50.0507 1542.1 50.0507 1538.63C50.0507 1535.16 52.8634 1532.35 56.3354 1532.35C59.8073 1532.35 62.62 1535.16 62.62 1538.63C62.5761 1542.1 59.8073 1544.92 56.3354 1544.92ZM87.8026 1544.92C84.3306 1544.92 81.5179 1542.1 81.5179 1538.63C81.5179 1535.16 84.3306 1532.35 87.8026 1532.35C91.2745 1532.35 94.0872 1535.16 94.0872 1538.63C94.0872 1542.1 91.2745 1544.92 87.8026 1544.92Z" fill="white"/>
</g>
<rect y="1656" width="180" height="180" rx="4" fill="white"/>
<path d="M128.287 1727.33C128.287 1732.56 128.475 1737.76 128.224 1742.99C127.974 1748.95 129.791 1754.05 133.551 1758.57C133.989 1759.1 134.397 1759.63 134.773 1760.2C136.12 1762.23 135.869 1763.64 134.021 1765.21C130.073 1768.53 126.157 1771.88 122.209 1775.2C119.859 1777.18 118.386 1777.15 116.005 1775.2C112.809 1772.6 110.303 1769.41 108.078 1765.99C107.545 1765.18 107.263 1765.21 106.605 1765.84C102.658 1769.69 98.4905 1773.26 93.1954 1775.05C85.0178 1777.84 76.7149 1778.27 68.506 1775.36C60.6103 1772.54 55.8792 1766.71 54.1246 1758.6C52.1821 1749.54 53.1847 1740.93 58.7617 1733.25C62.9915 1727.45 68.8506 1724.04 75.5869 1721.94C82.5426 1719.81 89.7176 1718.99 96.9239 1718.27C98.9605 1718.05 100.966 1717.87 103.002 1717.68C103.504 1717.65 103.942 1717.58 103.911 1716.93C103.848 1713.61 104.193 1710.22 103.41 1706.96C102.407 1702.8 99.6811 1700.35 95.514 1699.44C92.5375 1698.79 89.5923 1698.97 86.7097 1699.94C82.3233 1701.45 79.5974 1704.49 78.5008 1709C77.9055 1711.47 76.7462 1712.35 74.3337 1712.1C69.1952 1711.57 64.0568 1711.04 58.9497 1710.5C56.8505 1710.28 55.7539 1708.69 56.1925 1706.65C58.8557 1693.65 67.378 1686.35 79.6601 1682.99C89.091 1680.43 98.6472 1680.27 108.109 1682.93C115.723 1685.06 122.115 1688.82 125.687 1696.28C127.723 1700.51 128.193 1705.08 128.256 1709.66C128.318 1715.52 128.256 1721.44 128.287 1727.33C128.256 1727.33 128.287 1727.33 128.287 1727.33ZM103.911 1737.1C103.911 1735.54 103.848 1733.97 103.942 1732.4C104.005 1731.43 103.66 1731.09 102.689 1731.18C100.308 1731.4 97.8952 1731.43 95.514 1731.75C91.3469 1732.28 87.2737 1733.31 83.8899 1735.95C78.9708 1739.8 77.9368 1745.06 78.7515 1750.98C79.7227 1757.94 85.9264 1761.79 92.5688 1759.48C97.0806 1757.91 99.8378 1754.59 101.749 1750.42C103.754 1746.19 103.911 1741.65 103.911 1737.1Z" fill="#050606"/>
<path d="M92.3182 1807.82C68.4119 1807.66 46.9496 1801.52 27.5552 1788.58C23.6074 1785.95 19.8476 1783.07 16.2757 1779.9C15.9624 1779.62 15.6491 1779.34 15.3985 1779C15.0538 1778.53 14.8032 1777.96 15.2105 1777.4C15.6178 1776.77 16.3071 1776.71 16.9024 1776.99C18.281 1777.65 19.5969 1778.37 20.9442 1779.06C33.2889 1785.57 46.2917 1790.27 59.921 1793.25C72.2658 1795.95 84.7358 1797.2 97.3939 1796.85C115.472 1796.35 132.893 1792.72 149.655 1785.98C150.47 1785.64 151.316 1785.29 152.162 1785.1C153.353 1784.89 154.543 1785.04 155.076 1786.33C155.577 1787.52 154.919 1788.46 154.042 1789.21C153.415 1789.74 152.695 1790.18 151.974 1790.65C141.164 1797.67 129.321 1802.18 116.788 1804.97C108.517 1806.85 100.12 1807.76 92.3182 1807.82Z" fill="#F6A61F"/>
<path d="M152.632 1779.9C149.029 1779.87 145.457 1780.34 141.885 1780.72C141.196 1780.78 140.413 1780.97 140.099 1780.22C139.723 1779.37 140.444 1778.87 141.039 1778.46C145.488 1775.52 150.47 1774.36 155.702 1774.08C159.306 1773.86 162.877 1774.01 166.387 1775.08C167.984 1775.55 168.768 1776.49 168.736 1778.12C168.548 1786.83 165.635 1794.41 159.337 1800.58C159.118 1800.8 158.867 1800.99 158.616 1801.18C158.052 1801.59 157.363 1801.96 156.768 1801.46C156.204 1800.99 156.517 1800.3 156.768 1799.74C158.616 1795.13 160.496 1790.56 161.405 1785.64C161.53 1785.01 161.561 1784.38 161.593 1783.79C161.624 1781.75 160.904 1780.87 158.898 1780.37C156.799 1779.81 154.7 1779.9 152.632 1779.9Z" fill="#F6A61F"/>
<defs>
<linearGradient id="paint0_linear" x1="54.5859" y1="1202.54" x2="142.73" y2="1233.84" gradientUnits="userSpaceOnUse">
<stop stop-color="#3E2723" stop-opacity="0.2"/>
<stop offset="1" stop-color="#3E2723" stop-opacity="0.02"/>
</linearGradient>
<radialGradient id="paint1_radial" cx="0" cy="0" r="1" gradientUnits="userSpaceOnUse" gradientTransform="translate(51.5779 1142.15) scale(131.713)">
<stop stop-color="white" stop-opacity="0.1"/>
<stop offset="1" stop-color="white" stop-opacity="0"/>
</radialGradient>
<linearGradient id="paint2_linear" x1="25" y1="1313" x2="25" y2="1443" gradientUnits="userSpaceOnUse">
<stop stop-color="white"/>
<stop offset="1" stop-color="#D8D8D8"/>
</linearGradient>
<clipPath id="clip0">
<rect width="111.429" height="130" fill="white" transform="translate(35 582)"/>
</clipPath>
<clipPath id="clip1">
<rect width="130" height="105.389" fill="white" transform="translate(25 1512)"/>
</clipPath>
</defs>
</svg>
