<svg width="56" height="700" viewBox="0 0 56 700" fill="none" xmlns="http://www.w3.org/2000/svg">
<path fill-rule="evenodd" clip-rule="evenodd" d="M15.25 3H12.75C10.9551 3 9.5 4.45507 9.5 6.25V8.75C9.5 9.39432 9.6875 9.99485 10.0109 10.5H9C7.067 10.5 5.5 12.067 5.5 14V17C5.5 18.3807 6.61929 19.5 8 19.5H9V21V21.5C9 22.6046 9.89543 23.5 11 23.5H13C13.5523 23.5 14 23.0523 14 22.5C14 23.0523 14.4477 23.5 15 23.5H17C18.1046 23.5 19 22.6046 19 21.5V21V19.5H20C21.3807 19.5 22.5 18.3807 22.5 17V14C22.5 12.067 20.933 10.5 19 10.5H17.9891C18.3125 9.99485 18.5 9.39432 18.5 8.75V6.25C18.5 4.45507 17.0449 3 15.25 3ZM15.25 10.5C16.2165 10.5 17 9.7165 17 8.75V6.25C17 5.2835 16.2165 4.5 15.25 4.5H12.75C11.7835 4.5 11 5.2835 11 6.25V8.75C11 9.7165 11.7835 10.5 12.75 10.5H15.25ZM12.75 12H9C7.89543 12 7 12.8954 7 14V17C7 17.5523 7.44772 18 8 18H9V14.5C9 14.2239 9.22386 14 9.5 14C9.77614 14 10 14.2239 10 14.5V18V18.5V19.5V20V21C10 21.5523 10.4477 22 11 22H13V21V20V19C13 18.4477 13.4477 18 14 18C14.5523 18 15 18.4477 15 19V20V21V22H17C17.5523 22 18 21.5523 18 21V20V19.5V18.5V18V14.5C18 14.2239 18.2239 14 18.5 14C18.7761 14 19 14.2239 19 14.5V18H20C20.5523 18 21 17.5523 21 17V14C21 12.8954 20.1046 12 19 12H15.25H12.75ZM4.52276 21.2727C5.1452 20.9029 6.02083 20.6167 7.0066 20.3857V21.0439C6.50072 21.1855 6.05699 21.3527 5.71639 21.5454C3.05367 22.9091 5.90002 24.8181 13.98 24.8181C22.06 24.8181 24.9063 22.9091 22.2436 21.5454C21.9203 21.3625 21.5039 21.2025 21.0297 21.0656V20.3392C21.9555 20.5859 22.7753 20.8839 23.4373 21.1818C27.11 23.0909 24.4473 26 13.98 26C3.51276 26 0.941856 23.0909 4.52276 21.2727Z" fill="#121212"/>
<path fill-rule="evenodd" clip-rule="evenodd" d="M10 34C10 32.3431 11.3431 31 13 31H15C16.6569 31 18 32.3431 18 34V36C18 37.6569 16.6569 39 15 39H19C20.6569 39 22 40.3431 22 42V45C22 46.1046 21.1046 47 20 47H19V42.5C19 42.2239 18.7761 42 18.5 42C18.2239 42 18 42.2239 18 42.5V47V47.5V50C18 50.5523 17.5523 51 17 51H16C15.4477 51 15 50.5523 15 50V48V47C15 46.4477 14.5523 46 14 46C13.4477 46 13 46.4477 13 47V48V50C13 50.5523 12.5523 51 12 51H11C10.4477 51 10 50.5523 10 50V47.5V47V42.5C10 42.2239 9.77614 42 9.5 42C9.22386 42 9 42.2239 9 42.5V47H8C6.89543 47 6 46.1046 6 45V42C6 40.3431 7.34315 39 9 39H13C11.3431 39 10 37.6569 10 36V34ZM4.52276 49.2727C5.14381 48.9037 6.01692 48.618 7 48.3873V49.0457C6.49686 49.187 6.0555 49.3535 5.71639 49.5454C3.05367 50.909 5.90002 52.8181 13.98 52.8181C22.06 52.8181 24.9063 50.909 22.2436 49.5454C21.9135 49.3586 21.4865 49.1959 21 49.057V48.3313C21.938 48.5796 22.7682 48.8807 23.4373 49.1818C27.11 51.0908 24.4472 53.9999 13.98 53.9999C3.51276 53.9999 0.941856 51.0908 4.52276 49.2727Z" fill="#121212"/>
<path fill-rule="evenodd" clip-rule="evenodd" d="M22 61.5H6C5.72386 61.5 5.5 61.7239 5.5 62V78.5H14V76C14 72.6863 16.6863 70 20 70H22.5V62C22.5 61.7239 22.2761 61.5 22 61.5ZM14 80H15.5H16L24 72V71.5V70V62C24 60.8954 23.1046 60 22 60H6C4.89543 60 4 60.8954 4 62V78.5V80H5.5H14ZM15.5 78.3787L22.3787 71.5H20C17.5147 71.5 15.5 73.5147 15.5 76V78.3787ZM9 64.5H19C19.2761 64.5 19.5 64.7239 19.5 65V66.5C19.5 66.7761 19.2761 67 19 67H9C8.72386 67 8.5 66.7761 8.5 66.5V65C8.5 64.7239 8.72386 64.5 9 64.5ZM7 65C7 63.8954 7.89543 63 9 63H19C20.1046 63 21 63.8954 21 65V66.5C21 67.6046 20.1046 68.5 19 68.5H9C7.89543 68.5 7 67.6046 7 66.5V65ZM7 70.75C7 70.3358 7.33579 70 7.75 70H11.75C12.1642 70 12.5 70.3358 12.5 70.75C12.5 71.1642 12.1642 71.5 11.75 71.5H7.75C7.33579 71.5 7 71.1642 7 70.75ZM7.75 73C7.33579 73 7 73.3358 7 73.75C7 74.1642 7.33579 74.5 7.75 74.5H11.75C12.1642 74.5 12.5 74.1642 12.5 73.75C12.5 73.3358 12.1642 73 11.75 73H7.75Z" fill="#121212"/>
<path fill-rule="evenodd" clip-rule="evenodd" d="M10 89.5H18C20.4853 89.5 22.5 91.5147 22.5 94V102C22.5 104.485 20.4853 106.5 18 106.5H5.5V94C5.5 91.5147 7.51472 89.5 10 89.5ZM4 94C4 90.6863 6.68629 88 10 88H18C21.3137 88 24 90.6863 24 94V102C24 105.314 21.3137 108 18 108H5.5H4V106.5V94ZM9.75 93C9.33579 93 9 93.3358 9 93.75C9 94.1642 9.33579 94.5 9.75 94.5H18.25C18.6642 94.5 19 94.1642 19 93.75C19 93.3358 18.6642 93 18.25 93H9.75ZM9.75 97C9.33579 97 9 97.3358 9 97.75C9 98.1642 9.33579 98.5 9.75 98.5H18.25C18.6642 98.5 19 98.1642 19 97.75C19 97.3358 18.6642 97 18.25 97H9.75ZM9 101.75C9 101.336 9.33579 101 9.75 101H14.0833C14.4975 101 14.8333 101.336 14.8333 101.75C14.8333 102.164 14.4975 102.5 14.0833 102.5H9.75C9.33579 102.5 9 102.164 9 101.75Z" fill="#121212"/>
<path fill-rule="evenodd" clip-rule="evenodd" d="M10 116C6.68629 116 4 118.686 4 122V136H18C21.3137 136 24 133.314 24 130V122C24 118.686 21.3137 116 18 116H10ZM9.75 121C9.33579 121 9 121.336 9 121.75C9 122.164 9.33579 122.5 9.75 122.5H18.25C18.6642 122.5 19 122.164 19 121.75C19 121.336 18.6642 121 18.25 121H9.75ZM9.75 125C9.33579 125 9 125.336 9 125.75C9 126.164 9.33579 126.5 9.75 126.5H18.25C18.6642 126.5 19 126.164 19 125.75C19 125.336 18.6642 125 18.25 125H9.75ZM9 129.75C9 129.336 9.33579 129 9.75 129H14.0833C14.4975 129 14.8333 129.336 14.8333 129.75C14.8333 130.164 14.4975 130.5 14.0833 130.5H9.75C9.33579 130.5 9 130.164 9 129.75Z" fill="#121212"/>
<circle cx="18.5" cy="157.5" r="1.5" fill="#121212"/>
<path d="M13.1712 155.476L12.9806 155.947L13.3474 156.299C13.6304 156.57 13.8886 156.857 14.1174 157.163L14.1175 157.164C14.1889 157.264 14.2459 157.433 14.2459 157.636C14.2459 157.837 14.1899 158.004 14.1198 158.103C13.8881 158.413 13.6281 158.703 13.3458 158.974L12.9797 159.327L13.1714 159.797C13.3714 160.288 13.6369 160.752 13.9641 161.171L14.277 161.572L14.7651 161.429C15.1357 161.321 15.5093 161.242 15.8853 161.196L15.8863 161.196L15.8988 161.195C16.0213 161.183 16.1963 161.218 16.3733 161.32C16.5475 161.42 16.6641 161.552 16.7162 161.663C16.8687 162.02 16.989 162.388 17.0823 162.768L17.1983 163.239L17.6721 163.326L17.6741 163.326L17.6823 163.328C17.694 163.33 17.7193 163.335 17.751 163.339C18.2813 163.41 18.7987 163.399 19.2942 163.329L19.796 163.259L19.9178 162.767C20.0119 162.387 20.131 162.021 20.2801 161.672L20.2822 161.667C20.3329 161.555 20.4501 161.421 20.6268 161.319C20.8012 161.218 20.9738 161.184 21.0961 161.195C21.4792 161.24 21.8584 161.32 22.2355 161.429L22.7229 161.57L23.0351 161.17C23.359 160.755 23.6268 160.293 23.8284 159.794L24.0188 159.323L23.6521 158.972C23.3681 158.699 23.1094 158.412 22.8808 158.104L22.8718 158.092C22.8054 157.99 22.7538 157.828 22.7539 157.635C22.7539 157.434 22.8098 157.267 22.8801 157.166C23.1118 156.856 23.3709 156.569 23.654 156.296L24.0197 155.943L23.8281 155.473C23.6284 154.983 23.3636 154.519 23.0369 154.1L22.7245 153.699L22.2365 153.841C21.8574 153.951 21.4767 154.031 21.0949 154.076L21.0947 154.076C20.9728 154.087 20.8008 154.052 20.6267 153.951C20.4522 153.85 20.3357 153.718 20.284 153.608C20.1312 153.252 20.0112 152.882 19.9176 152.502L19.7936 151.998L19.2936 151.938L19.2847 151.937C19.2754 151.935 19.2626 151.933 19.2475 151.931C18.7184 151.862 18.2021 151.872 17.7068 151.94L17.2044 152.01L17.0822 152.502C16.9867 152.887 16.8667 153.255 16.715 153.607L16.7094 153.62C16.6549 153.728 16.5407 153.854 16.3725 153.952C16.1984 154.052 16.0261 154.087 15.9036 154.077C15.5188 154.031 15.1394 153.951 14.7657 153.842L14.2787 153.7L13.966 154.1C13.6407 154.515 13.3731 154.977 13.1712 155.476Z" stroke="#121212" stroke-width="1.5"/>
<path fill-rule="evenodd" clip-rule="evenodd" d="M12.75 143.5H10.25C8.45507 143.5 7 144.955 7 146.75V149.25C7 149.894 7.1875 150.495 7.51091 151H6.5C4.567 151 3 152.567 3 154.5V157.5C3 158.881 4.11929 160 5.5 160H7V161.5V162C7 163.105 7.89543 164 9 164H11C11.5523 164 12 163.552 12 163V162.5V162.165C11.5882 161.592 11.2502 160.962 11 160.29V161V161.5V162.5H9C8.44772 162.5 8 162.052 8 161.5V161V160V159V158.5V155C8 154.724 7.77614 154.5 7.5 154.5C7.22386 154.5 7 154.724 7 155V158.5H5.5C4.94772 158.5 4.5 158.052 4.5 157.5V154.5C4.5 153.395 5.39543 152.5 6.5 152.5H10.25H12.2546C13.1991 151.322 14.4702 150.417 15.9305 149.922C15.9761 149.705 16 149.48 16 149.25V146.75C16 144.955 14.5449 143.5 12.75 143.5ZM12.75 151C13.7165 151 14.5 150.216 14.5 149.25V146.75C14.5 145.784 13.7165 145 12.75 145H10.25C9.2835 145 8.5 145.784 8.5 146.75V149.25C8.5 150.216 9.2835 151 10.25 151H12.75Z" fill="#121212"/>
<path d="M12.5588 191.132L12.5556 191.147L12.5531 191.162C12.475 191.631 12.638 192.06 12.9508 192.352C13.2453 192.627 13.6348 192.75 14.0072 192.75C14.7083 192.75 15.1159 192.233 15.3086 191.859L22.512 179.521L23.2752 178.214L21.7728 178.398L14.0991 179.342L15.4555 172.868L15.4555 172.868L15.4569 172.861C15.5527 172.382 15.3501 171.961 15.0821 171.693C14.8125 171.423 14.4272 171.25 14.0072 171.25C13.5002 171.25 12.9762 171.506 12.7571 172.032L5.50206 184.479L4.74048 185.786L6.24155 185.602L13.9153 184.658L12.5588 191.132Z" stroke="#121212" stroke-width="1.5"/>
<path fill-rule="evenodd" clip-rule="evenodd" d="M21.4428 217.521C22.8115 217.132 24.0899 216.518 25.2397 215.724L25.9585 215.227L25.8812 214.357C25.8127 213.585 25.7259 212.804 25.6088 212.018L25.6075 212.01L25.6061 212.001C25.4701 211.156 25.0272 210.384 24.5086 209.805C23.9936 209.229 23.2655 208.689 22.4065 208.487L22.3961 208.485L22.3856 208.483C22.096 208.419 21.8064 208.362 21.5166 208.31C21.9275 207.867 22.2977 207.258 22.4011 206.55L22.4034 206.534L22.4054 206.519C22.5314 205.507 22.5314 204.493 22.4054 203.481L22.4034 203.465L22.4011 203.45C22.2892 202.684 21.8652 202.034 21.4156 201.585C20.9659 201.135 20.3161 200.711 19.55 200.599L19.5344 200.597L19.5188 200.595C18.507 200.468 17.4932 200.468 16.481 200.595L16.4653 200.597L16.4495 200.599C16.2779 200.624 16.1121 200.665 15.9531 200.718C16.2968 201.077 16.6385 201.527 16.9054 202.056C17.7149 201.973 18.5243 201.982 19.3333 202.083C20.0506 202.188 20.8121 202.95 20.9169 203.667C21.0276 204.556 21.0276 205.444 20.9169 206.333C20.8121 207.051 20.0506 207.812 19.3333 207.917C18.6468 208.002 17.96 208.022 17.2731 207.975C17.2394 208.105 17.2005 208.232 17.1571 208.355C17.8568 208.647 18.4604 209.071 18.952 209.525C19.9891 209.579 21.0263 209.72 22.0633 209.948C23.014 210.171 23.9654 211.247 24.1252 212.239C24.2369 212.989 24.3205 213.74 24.3871 214.49C23.4464 215.139 22.4112 215.651 21.3074 215.996L21.3794 216.807L21.4428 217.521ZM12.7568 200.61L12.7724 200.613C13.5982 200.733 14.3097 201.194 14.8082 201.692C15.3067 202.191 15.7668 202.902 15.8874 203.727L15.8897 203.743L15.8917 203.759C16.0362 204.919 16.0362 206.081 15.8917 207.241L15.8897 207.257L15.8874 207.272C15.7669 208.098 15.3068 208.809 14.8081 209.308L14.7985 209.318C15.1926 209.384 15.5867 209.46 15.9806 209.547L15.991 209.549L16.0015 209.551C16.9284 209.769 17.7244 210.356 18.2932 210.991C18.8656 211.631 19.3482 212.476 19.4956 213.392L19.497 213.401L19.4983 213.41C19.6314 214.303 19.7301 215.191 19.8081 216.07L19.8854 216.94L19.1664 217.437C16.832 219.049 14.0286 220 11.007 220C7.98552 220 5.18204 219.049 2.84749 217.437L2.12866 216.94L2.20594 216.07C2.28399 215.191 2.38271 214.303 2.51575 213.41L2.51705 213.401L2.51845 213.392C2.66592 212.476 3.14845 211.631 3.72085 210.991C4.28968 210.356 5.08574 209.769 6.01262 209.551L6.02306 209.549L6.03353 209.547C6.42356 209.461 6.81371 209.385 7.20394 209.32L7.19207 209.308C6.69368 208.809 6.2331 208.097 6.11302 207.271L6.11088 207.257L6.10903 207.242C5.96372 206.081 5.96372 204.919 6.10903 203.758L6.11087 203.743L6.113 203.729C6.23303 202.902 6.69359 202.191 7.19219 201.692C7.69082 201.193 8.40221 200.733 9.2274 200.613L9.24313 200.61L9.2589 200.608C10.4193 200.464 11.5812 200.464 12.7412 200.608L12.7568 200.61ZM7.59742 203.944C7.71897 203.107 8.60804 202.219 9.44427 202.097C10.4816 201.968 11.519 201.968 12.5557 202.097C13.3925 202.219 14.281 203.108 14.4032 203.944C14.5323 204.982 14.5323 206.018 14.4032 207.056C14.281 207.893 13.3925 208.781 12.5557 208.903C11.519 209.032 10.4816 209.032 9.44427 208.903C8.60804 208.781 7.71897 207.892 7.59742 207.056C7.46759 206.018 7.46759 204.982 7.59742 203.944ZM18.314 216.202C16.2163 217.652 13.7076 218.5 11.007 218.5C8.30646 218.5 5.7978 217.652 3.70006 216.202C3.77616 215.345 3.8717 214.488 3.99938 213.631C4.18201 212.496 5.26935 211.267 6.35584 211.012C9.45636 210.329 12.5577 210.329 15.6583 211.012C16.7447 211.267 17.8321 212.496 18.0147 213.631C18.1424 214.488 18.2379 215.345 18.314 216.202Z" fill="#121212"/>
<path fill-rule="evenodd" clip-rule="evenodd" d="M23.5 238C23.5 243.247 19.2467 247.5 14 247.5C8.75329 247.5 4.5 243.247 4.5 238C4.5 232.753 8.75329 228.5 14 228.5C19.2467 228.5 23.5 232.753 23.5 238ZM25 238C25 244.075 20.0751 249 14 249C7.92487 249 3 244.075 3 238C3 231.925 7.92487 227 14 227C20.0751 227 25 231.925 25 238ZM16.1698 238L12.5 240.294V235.706L16.1698 238ZM12.53 233.956L17.5849 237.116L19 238L17.5849 238.884L12.53 242.044C11.864 242.46 11 241.981 11 241.196V234.804C11 234.019 11.864 233.54 12.53 233.956Z" fill="#121212"/>
<path fill-rule="evenodd" clip-rule="evenodd" d="M14 277C20.0751 277 25 272.075 25 266C25 259.925 20.0751 255 14 255C7.92487 255 3 259.925 3 266C3 272.075 7.92487 277 14 277ZM12.53 261.956C11.864 261.54 11 262.019 11 262.804V269.196C11 269.981 11.864 270.46 12.53 270.044L19 266L12.53 261.956Z" fill="black"/>
<path fill-rule="evenodd" clip-rule="evenodd" d="M21 283.5H7C6.72386 283.5 6.5 283.724 6.5 284V304C6.5 304.276 6.72386 304.5 7 304.5H21C21.2761 304.5 21.5 304.276 21.5 304V284C21.5 283.724 21.2761 283.5 21 283.5ZM7 282C5.89543 282 5 282.895 5 284V304C5 305.105 5.89543 306 7 306H21C22.1046 306 23 305.105 23 304V284C23 282.895 22.1046 282 21 282H7ZM14 285C13.5858 285 13.25 285.336 13.25 285.75V286.5H10.75C10.3358 286.5 10 286.836 10 287.25C10 287.664 10.3358 288 10.75 288H13.25H14.75H17.25C17.6642 288 18 287.664 18 287.25C18 286.836 17.6642 286.5 17.25 286.5H14.75V285.75C14.75 285.336 14.4142 285 14 285ZM9.5 298C9.5 297.724 9.72386 297.5 10 297.5H18C18.2761 297.5 18.5 297.724 18.5 298V300.5C18.5 300.776 18.2761 301 18 301H10C9.72386 301 9.5 300.776 9.5 300.5V298ZM8 298C8 296.895 8.89543 296 10 296H18C19.1046 296 20 296.895 20 298V300.5C20 301.605 19.1046 302.5 18 302.5H10C8.89543 302.5 8 301.605 8 300.5V298Z" fill="#121212"/>
<path fill-rule="evenodd" clip-rule="evenodd" d="M9.50002 312H7.50002C6.11931 312 5.00002 313.119 5.00002 314.5V316.5C5.00002 317.016 5.15624 317.495 5.42396 317.893C5.37341 317.906 5.32289 317.92 5.27239 317.933C4.87642 318.038 4.57379 318.254 4.3802 318.421C4.16787 318.603 3.98341 318.816 3.83044 319.033C3.53994 319.444 3.2677 320.007 3.19256 320.634C3.14959 320.951 3.12309 321.593 3.10253 322.185C3.07953 322.847 3.06014 323.609 3.04482 324.211L3.0434 324.267C3.02763 324.891 3.01452 325.411 3.00112 325.76L2.97107 326.545L3.59836 327.017C4.7285 327.867 6.04734 328.322 7.52535 328.457C7.53112 328.241 7.53718 328.001 7.54373 327.742L7.54522 327.683C7.55093 327.458 7.55723 327.211 7.56409 326.954C6.35753 326.83 5.34657 326.455 4.50002 325.818C4.5138 325.458 4.52712 324.931 4.54267 324.315L4.54425 324.252C4.57506 323.041 4.62144 321.218 4.68048 320.825C4.75237 320.177 5.28349 319.48 5.65957 319.382C6.60121 319.128 7.54951 319 8.49772 319H8.50026C8.83363 319 9.16698 319.016 9.50003 319.047V318C9.50003 317.83 9.51215 317.663 9.53557 317.499C9.52377 317.5 9.51192 317.5 9.50002 317.5H7.50002C6.94774 317.5 6.50002 317.052 6.50002 316.5V314.5C6.50002 313.948 6.94774 313.5 7.50002 313.5H9.50002C10.0523 313.5 10.5 313.948 10.5 314.5V315.551C10.9099 315.132 11.4239 314.816 12 314.645V314.5C12 313.119 10.8807 312 9.50002 312ZM24.3966 327.018C23.2619 327.864 21.9468 328.321 20.4747 328.456C20.4689 328.238 20.4627 327.995 20.4561 327.732L20.4549 327.683C20.4491 327.458 20.4428 327.21 20.436 326.953C21.6352 326.828 22.6457 326.453 23.5 325.816C23.4862 325.455 23.4728 324.925 23.4572 324.307L23.4571 324.306L23.4558 324.252C23.425 323.041 23.3786 321.218 23.323 320.854C23.2482 320.179 22.7337 319.534 22.3121 319.376C21.3793 319.125 20.4398 319 19.5003 319H19.4977C19.1651 319 18.8324 319.016 18.5 319.047V318C18.5 317.83 18.4879 317.663 18.4645 317.499C18.4763 317.5 18.4881 317.5 18.5 317.5H20.5C21.0523 317.5 21.5 317.052 21.5 316.5V314.5C21.5 313.948 21.0523 313.5 20.5 313.5H18.5C17.9477 313.5 17.5 313.948 17.5 314.5V315.55C17.0902 315.132 16.5762 314.816 16 314.645V314.5C16 313.119 17.1193 312 18.5 312H20.5C21.8807 312 23 313.119 23 314.5V316.5C23 317.016 22.8436 317.496 22.5756 317.894C22.6174 317.905 22.6591 317.916 22.7009 317.927L22.772 317.946L22.8408 317.972C23.4268 318.193 23.8761 318.643 24.1658 319.046C24.4703 319.47 24.7355 320.03 24.811 320.664C24.8526 320.973 24.8781 321.609 24.898 322.189C24.9205 322.846 24.9399 323.607 24.9552 324.209L24.9564 324.257C24.9723 324.885 24.9855 325.407 24.9989 325.758L25.0291 326.547L24.3966 327.018ZM13 315.5H15C16.3807 315.5 17.5 316.619 17.5 318V320C17.5 320.516 17.3436 320.996 17.0756 321.394C17.1174 321.405 17.1591 321.416 17.2009 321.427L17.272 321.446L17.3408 321.472C17.9268 321.693 18.3761 322.143 18.6658 322.546C18.9703 322.97 19.2355 323.53 19.311 324.164C19.3526 324.473 19.3781 325.109 19.398 325.689C19.4205 326.347 19.4399 327.108 19.4552 327.71L19.4552 327.71L19.4555 327.722L19.4555 327.723L19.4564 327.757C19.4723 328.385 19.4855 328.907 19.4989 329.258L19.5291 330.047L18.8966 330.518C17.5171 331.547 15.8707 332 14 332C12.1229 332 10.4714 331.549 9.09836 330.517L8.47107 330.045L8.50112 329.26C8.51452 328.911 8.52763 328.391 8.5434 327.767L8.54451 327.723L8.54452 327.722L8.54482 327.711L8.54482 327.711C8.56014 327.109 8.57953 326.347 8.60253 325.685C8.62309 325.093 8.64959 324.451 8.69256 324.134C8.7677 323.507 9.03994 322.944 9.33044 322.533C9.48341 322.316 9.66787 322.103 9.8802 321.921C10.0738 321.754 10.3764 321.538 10.7724 321.433C10.8229 321.42 10.8734 321.406 10.924 321.393C10.6562 320.995 10.5 320.516 10.5 320V318C10.5 316.619 11.6193 315.5 13 315.5ZM13.9977 322.5H14.0003C14.9398 322.5 15.8793 322.625 16.8121 322.876C17.2337 323.034 17.7482 323.679 17.823 324.354C17.8786 324.718 17.925 326.541 17.9558 327.752L17.956 327.761L17.9571 327.806C17.9728 328.425 17.9862 328.954 18 329.316C16.9319 330.112 15.6198 330.5 14 330.5C12.37 330.5 11.0569 330.113 10 329.318C10.0138 328.958 10.0271 328.431 10.0427 327.815L10.0427 327.815L10.044 327.761L10.0443 327.752C10.0751 326.541 10.1214 324.718 10.1805 324.325C10.2524 323.677 10.7835 322.98 11.1596 322.882C12.1012 322.628 13.0495 322.5 13.9977 322.5ZM15 321H14.0001H13.9979H13C12.4477 321 12 320.552 12 320V318C12 317.448 12.4477 317 13 317H15C15.5523 317 16 317.448 16 318V320C16 320.552 15.5523 321 15 321Z" fill="#121212"/>
<mask id="path-15-inside-1" fill="white">
<path fill-rule="evenodd" clip-rule="evenodd" d="M14 339L4 347V357C4 359.209 5.79086 361 8 361H12V355C12 353.895 12.8954 353 14 353C15.1046 353 16 353.895 16 355V361H20C22.2091 361 24 359.209 24 357V347L14 339Z"/>
</mask>
<path d="M4 347L3.06296 345.829L2.5 346.279V347H4ZM14 339L14.937 337.829L14 337.079L13.063 337.829L14 339ZM12 361V362.5H13.5V361H12ZM16 361H14.5V362.5H16V361ZM24 347H25.5V346.279L24.937 345.829L24 347ZM4.93704 348.171L14.937 340.171L13.063 337.829L3.06296 345.829L4.93704 348.171ZM5.5 357V347H2.5V357H5.5ZM8 359.5C6.61929 359.5 5.5 358.381 5.5 357H2.5C2.5 360.038 4.96243 362.5 8 362.5V359.5ZM12 359.5H8V362.5H12V359.5ZM10.5 355V361H13.5V355H10.5ZM14 351.5C12.067 351.5 10.5 353.067 10.5 355H13.5C13.5 354.724 13.7239 354.5 14 354.5V351.5ZM17.5 355C17.5 353.067 15.933 351.5 14 351.5V354.5C14.2761 354.5 14.5 354.724 14.5 355H17.5ZM17.5 361V355H14.5V361H17.5ZM20 359.5H16V362.5H20V359.5ZM22.5 357C22.5 358.381 21.3807 359.5 20 359.5V362.5C23.0376 362.5 25.5 360.038 25.5 357H22.5ZM22.5 347V357H25.5V347H22.5ZM13.063 340.171L23.063 348.171L24.937 345.829L14.937 337.829L13.063 340.171Z" fill="#121212" mask="url(#path-15-inside-1)"/>
<path fill-rule="evenodd" clip-rule="evenodd" d="M14 367L4 375V385C4 387.209 5.79086 389 8 389H11V384C11 382.343 12.3431 381 14 381C15.6569 381 17 382.343 17 384V389H20C22.2091 389 24 387.209 24 385V375L14 367Z" fill="#121212"/>
<path fill-rule="evenodd" clip-rule="evenodd" d="M16 395.5H12C11.7239 395.5 11.5 395.724 11.5 396V397.021C11.6649 397.007 11.8316 397 12 397H16C16.1684 397 16.3351 397.007 16.5 397.021V396C16.5 395.724 16.2761 395.5 16 395.5ZM18 397.341V396C18 394.895 17.1046 394 16 394H12C10.8954 394 10 394.895 10 396V397.341C7.66962 398.165 6 400.388 6 403V407.268C5.4022 407.613 5 408.26 5 409V413.5C5 414.333 5.50889 415.047 6.23265 415.347C6.78574 416.894 8.26367 418 10 418H18C19.7363 418 21.2143 416.894 21.7674 415.347C22.4911 415.047 23 414.333 23 413.5V409C23 408.26 22.5978 407.613 22 407.268V403C22 400.388 20.3304 398.165 18 397.341ZM21 408.5H20.5V407V403C20.5 400.515 18.4853 398.5 16 398.5H12C9.51472 398.5 7.5 400.515 7.5 403L7.5 408.5H7C6.72386 408.5 6.5 408.724 6.5 409L6.5 413.5C6.5 413.776 6.72386 414 7 414H7.5C7.5 415.381 8.61929 416.5 10 416.5H18C19.3807 416.5 20.5 415.381 20.5 414H21C21.2761 414 21.5 413.776 21.5 413.5V409C21.5 408.724 21.2761 408.5 21 408.5ZM11 409H17C17.2761 409 17.5 409.224 17.5 409.5V413C17.5 413.276 17.2761 413.5 17 413.5H11C10.7239 413.5 10.5 413.276 10.5 413V409.5C10.5 409.224 10.7239 409 11 409ZM9 409.5C9 408.395 9.89543 407.5 11 407.5H17C18.1046 407.5 19 408.395 19 409.5V413C19 414.105 18.1046 415 17 415H11C9.89543 415 9 414.105 9 413V409.5ZM12 402.75C12 402.336 12.3358 402 12.75 402H15.25C15.6642 402 16 402.336 16 402.75C16 403.164 15.6642 403.5 15.25 403.5H12.75C12.3358 403.5 12 403.164 12 402.75Z" fill="#121212"/>
<path fill-rule="evenodd" clip-rule="evenodd" d="M16 423.5H12C11.7239 423.5 11.5 423.724 11.5 424V425.021C11.6649 425.007 11.8316 425 12 425H16C16.1684 425 16.3351 425.007 16.5 425.021V424C16.5 423.724 16.2761 423.5 16 423.5ZM18 425.341V424C18 422.895 17.1046 422 16 422H12C10.8954 422 10 422.895 10 424V425.341C7.66962 426.165 6 428.388 6 431V435.268C5.4022 435.613 5 436.26 5 437V441.5C5 442.333 5.50889 443.047 6.23265 443.347C6.78574 444.894 8.26367 446 10 446H18C19.7363 446 21.2143 444.894 21.7674 443.347C22.4911 443.047 23 442.333 23 441.5V437C23 436.26 22.5978 435.613 22 435.268V431C22 428.388 20.3304 426.165 18 425.341ZM11 437H17C17.2761 437 17.5 437.224 17.5 437.5V441C17.5 441.276 17.2761 441.5 17 441.5H11C10.7239 441.5 10.5 441.276 10.5 441V437.5C10.5 437.224 10.7239 437 11 437ZM9 437.5C9 436.395 9.89543 435.5 11 435.5H17C18.1046 435.5 19 436.395 19 437.5V441C19 442.105 18.1046 443 17 443H11C9.89543 443 9 442.105 9 441V437.5ZM12 430.75C12 430.336 12.3358 430 12.75 430H15.25C15.6642 430 16 430.336 16 430.75C16 431.164 15.6642 431.5 15.25 431.5H12.75C12.3358 431.5 12 431.164 12 430.75Z" fill="#121212"/>
<path fill-rule="evenodd" clip-rule="evenodd" d="M23.5 462C23.5 467.247 19.2467 471.5 14 471.5C8.75329 471.5 4.5 467.247 4.5 462C4.5 456.753 8.75329 452.5 14 452.5C19.2467 452.5 23.5 456.753 23.5 462ZM25 462C25 468.075 20.0751 473 14 473C7.92487 473 3 468.075 3 462C3 455.925 7.92487 451 14 451C20.0751 451 25 455.925 25 462ZM15.5 462C15.5 462.828 14.8284 463.5 14 463.5C13.1716 463.5 12.5 462.828 12.5 462C12.5 461.172 13.1716 460.5 14 460.5C14.8284 460.5 15.5 461.172 15.5 462ZM18.5 463.5C19.3284 463.5 20 462.828 20 462C20 461.172 19.3284 460.5 18.5 460.5C17.6716 460.5 17 461.172 17 462C17 462.828 17.6716 463.5 18.5 463.5ZM11 462C11 462.828 10.3284 463.5 9.5 463.5C8.67157 463.5 8 462.828 8 462C8 461.172 8.67157 460.5 9.5 460.5C10.3284 460.5 11 461.172 11 462Z" fill="#121212"/>
<path fill-rule="evenodd" clip-rule="evenodd" d="M14 501C20.0751 501 25 496.075 25 490C25 483.925 20.0751 479 14 479C7.92487 479 3 483.925 3 490C3 496.075 7.92487 501 14 501ZM9.5 491.5C10.3284 491.5 11 490.828 11 490C11 489.172 10.3284 488.5 9.5 488.5C8.67157 488.5 8 489.172 8 490C8 490.828 8.67157 491.5 9.5 491.5ZM15.5 490C15.5 490.828 14.8284 491.5 14 491.5C13.1716 491.5 12.5 490.828 12.5 490C12.5 489.172 13.1716 488.5 14 488.5C14.8284 488.5 15.5 489.172 15.5 490ZM20 490C20 490.828 19.3284 491.5 18.5 491.5C17.6716 491.5 17 490.828 17 490C17 489.172 17.6716 488.5 18.5 488.5C19.3284 488.5 20 489.172 20 490Z" fill="#121212"/>
<path fill-rule="evenodd" clip-rule="evenodd" d="M16.2168 506.641L16.2015 506.638L16.1862 506.636C14.7294 506.455 13.2712 506.455 11.8139 506.636L11.7981 506.638L11.7823 506.641C10.8379 506.779 10.0036 507.311 9.40724 507.907C8.81097 508.503 8.27845 509.338 8.14058 510.283L8.13835 510.298L8.13643 510.314C7.95453 511.771 7.95451 513.229 8.13644 514.686L8.13835 514.701L8.14058 514.716C8.27843 515.662 8.81086 516.496 9.40714 517.092C9.56913 517.254 9.74871 517.412 9.94331 517.558C9.22297 517.667 8.50274 517.805 7.78266 517.973L7.78264 517.973L7.7723 517.975C6.86478 518.2 6.03144 518.827 5.40674 519.566C4.77817 520.309 4.2909 521.246 4.14645 522.192L4.1464 522.192L4.14516 522.2C3.97692 523.396 3.85109 524.589 3.75256 525.779L3.71783 526.199L4.05762 526.447C6.90323 528.525 10.3188 529.75 14 529.75C17.6821 529.75 21.0976 528.525 23.9425 526.447L24.2822 526.199L24.2474 525.779C24.1489 524.589 24.0231 523.396 23.8548 522.2L23.8549 522.2L23.8535 522.192C23.7091 521.246 23.2218 520.309 22.5933 519.566C21.9686 518.827 21.1352 518.2 20.2277 517.975L20.2277 517.975L20.2173 517.973C19.4973 517.805 18.777 517.667 18.0567 517.558C18.2513 517.412 18.4309 517.254 18.5929 517.092C19.1891 516.496 19.7216 515.662 19.8594 514.716L19.8616 514.701L19.8636 514.686C20.0455 513.229 20.0455 511.771 19.8636 510.314L19.8616 510.298L19.8594 510.283C19.7216 509.338 19.1891 508.503 18.5929 507.907C17.9966 507.311 17.1619 506.778 16.2168 506.641ZM11.9997 508.125C10.9241 508.282 9.78174 509.424 9.62488 510.5C9.45837 511.833 9.45837 513.167 9.62488 514.5C9.78174 515.575 10.9241 516.718 11.9997 516.875C13.3337 517.042 14.667 517.042 16.0003 516.875C17.0759 516.718 18.2183 515.575 18.3751 514.5C18.5416 513.167 18.5416 511.833 18.3751 510.5C18.2183 509.424 17.0759 508.282 16.0003 508.125C14.667 507.958 13.3337 507.958 11.9997 508.125ZM6.55197 520.535C7.04499 519.952 7.62274 519.559 8.12813 519.432C12.0439 518.523 15.9561 518.523 19.8719 519.432C20.3773 519.559 20.955 519.952 21.448 520.535C21.9376 521.113 22.2753 521.8 22.3701 522.414C22.5135 523.433 22.6256 524.455 22.7162 525.479C20.1805 527.235 17.196 528.25 14 528.25C10.8048 528.25 7.82032 527.235 5.2838 525.478C5.37441 524.455 5.48655 523.433 5.62987 522.414C5.72471 521.8 6.06238 521.113 6.55197 520.535Z" fill="#121212"/>
<path fill-rule="evenodd" clip-rule="evenodd" d="M15 537.5H13C11.6193 537.5 10.5 538.619 10.5 540V541H17.5V540C17.5 538.619 16.3807 537.5 15 537.5ZM19 541H22.4867H24L23.8 542.5L22.2314 554.264C22.0989 555.258 21.2514 556 20.249 556H7.75103C6.74863 556 5.90106 555.258 5.76858 554.264L4.2 542.5L4 541H5.51327H9V540C9 537.791 10.7909 536 13 536H15C17.2091 536 19 537.791 19 540V541ZM7.25542 554.066L5.71327 542.5H22.2867L20.7446 554.066C20.7115 554.314 20.4996 554.5 20.249 554.5H7.75103C7.50043 554.5 7.28854 554.314 7.25542 554.066ZM9 544.75C9 544.336 9.33579 544 9.75 544C10.1642 544 10.5 544.336 10.5 544.75V546.25C10.5 546.664 10.1642 547 9.75 547C9.33579 547 9 546.664 9 546.25V544.75ZM18.25 544C17.8358 544 17.5 544.336 17.5 544.75V546.25C17.5 546.664 17.8358 547 18.25 547C18.6642 547 19 546.664 19 546.25V544.75C19 544.336 18.6642 544 18.25 544Z" fill="#121212"/>
<path fill-rule="evenodd" clip-rule="evenodd" d="M14.8403 571.743L16.6813 570.497L14.838 569.256L6.94514 563.94C6.6183 563.68 6.17267 563.5 5.69231 563.5C5.14687 563.5 4.57439 563.687 4.13343 564.125C3.69154 564.564 3.5 565.137 3.5 565.688C3.5 565.967 3.54873 566.267 3.68279 566.567C3.79409 566.815 3.94003 567.009 4.07827 567.158L6.74752 570.498L3.99175 573.932C3.762 574.2 3.65913 574.49 3.62124 574.603C3.56199 574.78 3.5 575.032 3.5 575.312C3.5 575.863 3.69154 576.436 4.13343 576.875C4.57439 577.313 5.14687 577.5 5.69231 577.5L5.69732 577.5C5.75892 577.504 6.34748 577.539 6.87072 577.132L14.8403 571.743ZM5.69231 565C5.83077 565 5.96923 565.069 6.03846 565.138L6.1543 565.216L6.28786 565.305L6.45047 565.415L6.61296 565.524L12.6585 569.596L14 570.5L12.6602 571.406L6.54859 575.539L6.44559 575.609L6.21579 575.764L6.08488 575.853L5.96923 575.931C5.9 576 5.83077 576 5.69231 576C5.27692 576 5 575.725 5 575.312C5 575.226 5.0277 575.111 5.06557 575.021C5.08758 574.969 5.11302 574.925 5.13846 574.9L5.21081 574.81L5.41033 574.561L5.52053 574.424L8.66923 570.5L5.58455 566.64L5.44959 566.471L5.28159 566.261L5.20769 566.169C5.17327 566.135 5.14313 566.1 5.11726 566.065C5.03909 565.959 5 565.842 5 565.688C5 565.275 5.27692 565 5.69231 565ZM21.1236 584.107L21.2057 584.162L21.2899 584.204L21.3089 584.215L21.3137 584.217C21.3346 584.229 21.3991 584.267 21.4675 584.301C21.6663 584.399 21.9479 584.5 22.3077 584.5C22.8531 584.5 23.4256 584.313 23.8666 583.875C24.3085 583.436 24.5 582.863 24.5 582.312C24.5 582.033 24.4513 581.733 24.3172 581.433C24.2059 581.185 24.06 580.991 23.9217 580.842L21.2525 577.502L24.0083 574.068C24.238 573.8 24.3409 573.51 24.3788 573.397C24.438 573.22 24.5 572.968 24.5 572.688C24.5 572.137 24.3085 571.564 23.8666 571.125C23.4256 570.687 22.8531 570.5 22.3077 570.5L22.3027 570.5C22.2411 570.496 21.6525 570.461 21.1293 570.868L13.1597 576.257L11.3187 577.503L13.162 578.744L21.1236 584.107ZM22.7184 581.739L22.7923 581.831C22.9308 581.969 23 582.106 23 582.312C23 582.725 22.7231 583 22.3077 583C22.2063 583 22.1421 582.963 22.0606 582.916C22.0308 582.899 21.9986 582.881 21.9615 582.862L21.8457 582.784L21.7121 582.695L21.5495 582.585L21.387 582.476L15.3415 578.404L14 577.5L15.3398 576.594L21.4514 572.461L21.5544 572.391L21.7842 572.236L21.9151 572.147L22.0308 572.069C22.1 572 22.1692 572 22.3077 572C22.7231 572 23 572.275 23 572.688C23 572.774 22.9723 572.889 22.9344 572.979C22.9124 573.031 22.887 573.075 22.8615 573.1L22.7892 573.19L22.5897 573.439L22.4795 573.576L19.3308 577.5L22.4155 581.36L22.5484 581.526L22.5957 581.585L22.7184 581.739Z" fill="#121212"/>
<path fill-rule="evenodd" clip-rule="evenodd" d="M4.5 596.175L4.5 608C4.5 608.276 4.72386 608.5 5 608.5L23 608.5C23.2761 608.5 23.5 608.276 23.5 608V596.175L14.3859 601.643L14 601.875L13.6141 601.643L4.5 596.175ZM21.7089 595.5L6.29107 595.5L14 600.125L21.7089 595.5ZM5 610C3.89543 610 3 609.105 3 608V596C3 594.895 3.89543 594 5 594H23C24.1046 594 25 594.895 25 596V608C25 609.105 24.1046 610 23 610L5 610Z" fill="#121212"/>
<path fill-rule="evenodd" clip-rule="evenodd" d="M5.5 638.5V621.5H22.5V638.5H5.5ZM4 621C4 620.448 4.44772 620 5 620H23C23.5523 620 24 620.448 24 621V639C24 639.552 23.5523 640 23 640H5C4.44772 640 4 639.552 4 639V621ZM8.75 625C8.33579 625 8 625.336 8 625.75V634.25C8 634.664 8.33579 635 8.75 635C9.16421 635 9.5 634.664 9.5 634.25V625.75C9.5 625.336 9.16421 625 8.75 625ZM11 625.75C11 625.336 11.3358 625 11.75 625C12.1642 625 12.5 625.336 12.5 625.75V634.25C12.5 634.664 12.1642 635 11.75 635C11.3358 635 11 634.664 11 634.25V625.75ZM15.14 625.359C14.924 625.005 14.4624 624.894 14.1089 625.11C13.7555 625.326 13.644 625.788 13.86 626.141L19.0762 634.677C19.2922 635.03 19.7538 635.141 20.1072 634.925C20.4607 634.709 20.5721 634.248 20.3561 633.894L15.14 625.359Z" fill="#121212"/>
<path fill-rule="evenodd" clip-rule="evenodd" d="M10 648.5H18C18.8284 648.5 19.5 649.172 19.5 650V666C19.5 666.828 18.8284 667.5 18 667.5H10C9.17157 667.5 8.5 666.828 8.5 666V650C8.5 649.172 9.17157 648.5 10 648.5ZM7 650C7 648.343 8.34315 647 10 647H18C19.6569 647 21 648.343 21 650V666C21 667.657 19.6569 669 18 669H10C8.34315 669 7 667.657 7 666V650ZM16.25 666.5C16.6642 666.5 17 666.164 17 665.75C17 665.336 16.6642 665 16.25 665H11.75C11.3358 665 11 665.336 11 665.75C11 666.164 11.3358 666.5 11.75 666.5H16.25Z" fill="#121212"/>
<path fill-rule="evenodd" clip-rule="evenodd" d="M6.75108 685.874C6.81848 681.928 10.0381 678.75 14 678.75C18.0041 678.75 21.25 681.996 21.25 686C21.25 686.16 21.2448 686.318 21.2347 686.475C21.208 686.889 21.5214 687.245 21.9348 687.272C22.3481 687.299 22.7049 686.985 22.7316 686.572C22.7438 686.383 22.75 686.192 22.75 686C22.75 681.168 18.8325 677.25 14 677.25C9.22779 677.25 5.34787 681.07 5.25182 685.82L3.73034 684.298C3.43745 684.005 2.96258 684.005 2.66968 684.298C2.37679 684.591 2.37679 685.066 2.66968 685.359L5.49817 688.187L6.0285 688.718L6.55883 688.187L9.38732 685.359C9.68021 685.066 9.68021 684.591 9.38732 684.298C9.09443 684.005 8.61955 684.005 8.32666 684.298L6.75108 685.874ZM14.5 682.25C14.5 681.836 14.1642 681.5 13.75 681.5C13.3358 681.5 13 681.836 13 682.25V686.25V687H13.75H17.75C18.1642 687 18.5 686.664 18.5 686.25C18.5 685.836 18.1642 685.5 17.75 685.5H14.5V682.25ZM21.5088 688.867C21.8802 689.05 22.0325 689.5 21.849 689.871C21.6792 690.215 21.4875 690.546 21.2758 690.862C21.0453 691.206 20.5795 691.299 20.2353 691.068C19.8911 690.838 19.7989 690.372 20.0293 690.028C20.2048 689.766 20.3636 689.491 20.5042 689.207C20.6877 688.835 21.1375 688.683 21.5088 688.867ZM19.0682 692.235C19.2986 692.579 19.2064 693.045 18.8622 693.276C18.5459 693.487 18.215 693.679 17.8713 693.849C17.4999 694.032 17.0502 693.88 16.8667 693.509C16.6832 693.137 16.8355 692.688 17.2069 692.504C17.4914 692.364 17.7656 692.205 18.0277 692.029C18.3719 691.799 18.8377 691.891 19.0682 692.235ZM15.2722 693.935C15.2989 694.348 14.9854 694.705 14.5721 694.732C14.3829 694.744 14.1921 694.75 14 694.75C13.5858 694.75 13.25 694.414 13.25 694C13.25 693.586 13.5858 693.25 14 693.25C14.1598 693.25 14.3183 693.245 14.4754 693.235C14.8887 693.208 15.2455 693.521 15.2722 693.935Z" fill="#121212"/>
</svg>
