<?xml version="1.0" encoding="utf-8"?>
<!-- Generator: Adobe Illustrator 21.1.0, SVG Export Plug-In . SVG Version: 6.00 Build 0)  -->
<!DOCTYPE svg PUBLIC "-//W3C//DTD SVG 1.1//EN" "http://www.w3.org/Graphics/SVG/1.1/DTD/svg11.dtd">
<svg version="1.1" id="Social_Links" xmlns="http://www.w3.org/2000/svg" xmlns:xlink="http://www.w3.org/1999/xlink" x="0px"
	 y="0px" width="180px" height="1652px" viewBox="0 0 180 1652" style="enable-background:new 0 0 180 1652;" xml:space="preserve" preserveAspectRatio="none">
<style type="text/css">
	.st0{fill:none;}
	.st1{fill:#FFFFFF;}
	.st2{fill:#7289DA;}
	.st3{fill:#FF1100;}
	.st4{fill:#1DA1F2;}
	.st5{fill:#6858A5;}
	.st6{fill:#3C5A99;}
	.st7{fill:#FEFEFE;}
	.st8{fill:#181717;}
	.st9{fill:#DB4437;}
	.st10{fill:#FFFFFF;fill-opacity:0.2;}
	.st11{fill:#3E2723;fill-opacity:0.2;}
	.st12{fill:url(#Shape_7_);}
	.st13{fill:#EEEEEE;}
	.st14{opacity:0.4;fill:#FFFFFF;enable-background:new    ;}
	.st15{opacity:0.1;fill:#3E2723;enable-background:new    ;}
	.st16{fill:url(#Oval_2_);}
	.st17{fill:#656668;}
</style>
<rect id="Rectangle_8_" y="1472" class="st0" width="180" height="180"/>
<g id="WeChat_Logo_1_">
	<path class="st1" d="M117.3,1541.3c-13,0.7-24.3,4.6-33.5,13.5c-9.3,9-13.5,20-12.3,33.7c-5.1-0.6-9.7-1.3-14.4-1.7
		c-1.6-0.1-3.5,0.1-4.9,0.8c-4.5,2.5-8.8,5.4-14,8.6c0.9-4.3,1.6-8,2.6-11.6c0.8-2.6,0.4-4.1-2-5.8c-15.6-11-22.2-27.5-17.3-44.5
		c4.6-15.7,15.7-25.2,30.9-30.2c20.7-6.8,44,0.1,56.7,16.6C113.7,1526.8,116.5,1533.4,117.3,1541.3z M57.5,1536.1
		c0.1-3.1-2.6-5.9-5.8-6c-3.3-0.1-6,2.4-6.1,5.6c-0.1,3.3,2.4,5.9,5.7,6C54.6,1541.7,57.3,1539.2,57.5,1536.1z M88.7,1530.1
		c-3.2,0.1-5.9,2.8-5.9,5.9c0.1,3.2,2.7,5.8,6,5.7c3.3,0,5.8-2.6,5.8-5.9C94.6,1532.5,91.9,1530,88.7,1530.1z"/>
	<path class="st1" d="M146.5,1622.4c-4.1-1.8-7.9-4.6-11.9-5s-8.2,1.9-12.4,2.3c-12.8,1.3-24.2-2.3-33.6-11
		c-17.9-16.6-15.4-42,5.4-55.6c18.4-12.1,45.5-8,58.5,8.7c11.3,14.6,10,34-3.8,46.3c-4,3.6-5.4,6.5-2.9,11.2
		C146.1,1620.2,146.2,1621.3,146.5,1622.4z M99.6,1577c2.6,0,4.8-2,4.9-4.6c0.1-2.7-2.1-5-4.8-5c-2.7,0-5,2.3-4.9,5
		C94.8,1574.9,97,1577,99.6,1577z M129.8,1567.3c-2.5,0-4.7,2.1-4.8,4.6c-0.1,2.7,2,5,4.7,5c2.6,0,4.7-2,4.8-4.6
		C134.7,1569.6,132.5,1567.4,129.8,1567.3z"/>
</g>
<rect id="Rectangle" class="st0" width="180" height="180"/>
<g id="Discord-Logo-Color" transform="translate(20.000000, 20.000000)">
	<path id="Shape" class="st2" d="M55.5,67.1c-4.6,0-8.2,4-8.2,8.9s3.7,8.9,8.2,8.9c4.6,0,8.2-4,8.2-8.9
		C63.8,71.1,60.1,67.1,55.5,67.1z M84.7,67.1c-4.6,0-8.2,4-8.2,8.9s3.7,8.9,8.2,8.9c4.6,0,8.2-4,8.2-8.9S89.3,67.1,84.7,67.1z"/>
	<path id="Shape_1_" class="st2" d="M123.6,0H16.4C7.4,0,0,7.4,0,16.5v108.2c0,9.1,7.4,16.5,16.4,16.5h90.7l-4.2-14.8l10.2,9.5
		l9.7,9L140,160V16.5C140,7.4,132.6,0,123.6,0z M92.7,104.5c0,0-2.9-3.4-5.3-6.5c10.5-3,14.5-9.5,14.5-9.5c-3.3,2.2-6.4,3.7-9.2,4.7
		c-4,1.7-7.8,2.8-11.6,3.4c-7.7,1.4-14.7,1-20.7-0.1c-4.6-0.9-8.5-2.2-11.8-3.4c-1.8-0.7-3.8-1.6-5.8-2.7c-0.2-0.2-0.5-0.2-0.7-0.4
		c-0.2-0.1-0.2-0.2-0.3-0.2c-1.4-0.8-2.2-1.4-2.2-1.4s3.8,6.4,14,9.4c-2.4,3-5.4,6.6-5.4,6.6c-17.7-0.6-24.4-12.2-24.4-12.2
		c0-25.8,11.5-46.6,11.5-46.6c11.5-8.6,22.5-8.4,22.5-8.4l0.8,1c-14.4,4.2-21,10.5-21,10.5s1.8-1,4.7-2.3c8.6-3.8,15.4-4.8,18.2-5
		c0.5-0.1,0.9-0.2,1.4-0.2c4.9-0.6,10.4-0.8,16.2-0.2c7.6,0.9,15.8,3.1,24.1,7.7c0,0-6.3-6-19.9-10.2l1.1-1.3c0,0,11-0.2,22.5,8.4
		c0,0,11.5,20.9,11.5,46.6C117.2,92.3,110.4,103.9,92.7,104.5z"/>
</g>
<rect id="Rectangle_1_" y="184" class="st0" width="180" height="180"/>
<g>
	<path class="st3" d="M156,240.7c-1.6-6-6.2-10.6-12.2-12.2c-10.7-2.9-53.7-2.9-53.7-2.9s-43,0-53.7,2.9
		c-5.9,1.6-10.6,6.3-12.2,12.2c-2.9,10.8-2.9,33.3-2.9,33.3s0,22.5,2.9,33.3c1.6,6,6.2,10.6,12.2,12.2c10.7,2.9,53.7,2.9,53.7,2.9
		s43,0,53.7-2.9c5.9-1.6,10.6-6.3,12.2-12.2c2.9-10.8,2.9-33.3,2.9-33.3S158.9,251.5,156,240.7z"/>
	<polygon class="st1" points="76,294.5 76,253.5 112.1,274 	"/>
</g>
<rect id="Rectangle_2_" y="368" class="st0" width="180" height="180"/>
<g id="Twitter_Logo_Blue" transform="translate(20.000000, 401.000000)">
	<path id="Shape_2_" class="st4" d="M44,114.1c52.8,0,81.7-43.8,81.7-81.7c0-1.2,0-2.5-0.1-3.7c5.6-4.1,10.5-9.1,14.3-14.9
		c-5.2,2.3-10.8,3.8-16.5,4.5c6-3.6,10.5-9.2,12.6-15.9c-5.6,3.3-11.8,5.7-18.2,7c-8.8-9.5-23-11.8-34.4-5.7S66,22.9,68.9,35.6
		c-23.1-1.2-44.6-12.1-59.2-30C2.1,18.7,6,35.5,18.6,43.9c-4.6-0.1-9-1.4-13-3.6c0,0.1,0,0.2,0,0.4c0,13.7,9.6,25.4,23,28.2
		c-4.2,1.2-8.7,1.3-13,0.5C19.4,81,30.2,89.1,42.5,89.3c-10.2,8-22.7,12.3-35.7,12.3c-2.3,0-4.6-0.1-6.8-0.4
		C13.1,109.6,28.4,114.1,44,114.1"/>
</g>
<rect id="Rectangle_3_" y="552" class="st0" width="180" height="180"/>
<path id="Page-1" class="st5" d="M29.8,569L20,594.2V697h35v18.6h19.7L93.3,697h28.4l38.3-38.3V569H29.8z M41.9,582.1h105v70
	L125,674H90l-18.6,18.6V674H41.9V582.1z M111.9,645.5H125v-38.2h-13.1V645.5z M76.9,645.5H90v-38.2H76.9V645.5z"/>
<rect id="Rectangle_4_" y="736" class="st0" width="180" height="180"/>
<g id="fb" transform="translate(20.000000, 756.000000)">
	<g id="Group-3" transform="translate(0.000000, 0.469288)">
		<g id="Clip-2">
		</g>
		<path id="Fill-1" class="st6" d="M132.2,140c4.3,0,7.7-3.5,7.7-7.7V7.8c0-4.3-3.5-7.7-7.7-7.7H7.7C3.5,0.1,0,3.5,0,7.8v124.5
			c0,4.3,3.5,7.7,7.7,7.7H132.2z"/>
	</g>
	<path id="Fill-4" class="st7" d="M96.6,140.5V86.3h18.2l2.7-21.1H96.6V51.7c0-6.1,1.7-10.3,10.5-10.3h11.2V22.5
		c-1.9-0.3-8.6-0.8-16.3-0.8c-16.1,0-27.2,9.8-27.2,27.9v15.6H56.5v21.1h18.2v54.2H96.6z"/>
</g>
<rect id="Rectangle_5_" y="920" class="st0" width="180" height="180"/>
<g id="github" transform="translate(20.000000, 941.000000)">
	<g id="Group-3_1_" transform="translate(0.000000, 0.917521)">
		<g id="Clip-2_1_">
		</g>
		<path id="Fill-1_1_" class="st8" d="M69.9,0.2C31.3,0.2,0,31.5,0,70.1c0,30.9,20,57.1,47.8,66.3c3.5,0.6,4.8-1.5,4.8-3.4
			c0-1.7-0.1-7.2-0.1-13c-19.4,4.2-23.5-8.2-23.5-8.2c-3.2-8.1-7.8-10.2-7.8-10.2c-6.3-4.3,0.5-4.2,0.5-4.2c7,0.5,10.7,7.2,10.7,7.2
			c6.2,10.7,16.3,7.6,20.3,5.8c0.6-4.5,2.4-7.6,4.4-9.3c-15.5-1.8-31.8-7.8-31.8-34.5c0-7.6,2.7-13.9,7.2-18.8
			c-0.7-1.8-3.1-8.9,0.7-18.5c0,0,5.9-1.9,19.2,7.2C58,35,64,34.2,69.9,34.1c5.9,0,11.9,0.8,17.5,2.4c13.3-9,19.2-7.2,19.2-7.2
			c3.8,9.6,1.4,16.7,0.7,18.5c4.5,4.9,7.2,11.1,7.2,18.8c0,26.8-16.3,32.7-31.9,34.5c2.5,2.2,4.7,6.4,4.7,12.9
			c0,9.3-0.1,16.9-0.1,19.2c0,1.9,1.3,4,4.8,3.4c27.7-9.2,47.7-35.4,47.7-66.3C139.7,31.5,108.5,0.2,69.9,0.2"/>
	</g>
	<path id="Fill-4_1_" class="st8" d="M26.5,101.5c-0.2,0.3-0.7,0.5-1.2,0.2c-0.5-0.2-0.8-0.7-0.6-1.1c0.2-0.4,0.7-0.5,1.2-0.2
		C26.3,100.6,26.6,101.1,26.5,101.5"/>
	<path id="Fill-6" class="st8" d="M29.3,104.6c-0.3,0.3-1,0.2-1.4-0.3c-0.5-0.5-0.5-1.1-0.2-1.5c0.3-0.3,1-0.2,1.4,0.3
		C29.6,103.7,29.6,104.3,29.3,104.6"/>
	<path id="Fill-8" class="st8" d="M32,108.7c-0.4,0.3-1.1,0-1.6-0.6c-0.4-0.6-0.4-1.4,0-1.7c0.4-0.3,1.1,0,1.6,0.6
		S32.5,108.4,32,108.7"/>
	<path id="Fill-10" class="st8" d="M35.8,112.5c-0.4,0.4-1.2,0.3-1.8-0.3c-0.6-0.6-0.8-1.4-0.4-1.8c0.4-0.4,1.2-0.3,1.8,0.3
		C36,111.3,36.2,112.1,35.8,112.5"/>
	<path id="Fill-12" class="st8" d="M41,114.8c-0.2,0.5-1,0.8-1.7,0.6c-0.8-0.2-1.3-0.9-1.1-1.4c0.2-0.6,1-0.8,1.8-0.6
		C40.7,113.6,41.2,114.2,41,114.8"/>
	<path id="Fill-14" class="st8" d="M46.7,115.2c0,0.6-0.7,1.1-1.5,1.1s-1.5-0.4-1.5-1s0.7-1.1,1.5-1.1
		C46.1,114.2,46.7,114.6,46.7,115.2"/>
	<path id="Fill-16" class="st8" d="M52.1,114.3c0.1,0.6-0.5,1.1-1.3,1.3c-0.8,0.1-1.6-0.2-1.7-0.8c-0.1-0.6,0.5-1.2,1.3-1.3
		C51.2,113.4,52,113.7,52.1,114.3"/>
</g>
<rect id="Rectangle_6_" y="1104" class="st0" width="180" height="180"/>
<g id="logo-google-plus" transform="translate(20.000000, 1124.000000)">
	<circle id="Oval" class="st9" cx="70" cy="70" r="70"/>
	<path id="Shape_3_" class="st10" d="M70,0.8c38.5,0,69.8,31.1,70,69.6V70c0-38.7-31.3-70-70-70S0,31.3,0,70v0.4
		C0.2,31.9,31.5,0.8,70,0.8z"/>
	<path id="Shape_4_" class="st11" d="M70,139.2c-38.5,0-69.8-31.1-70-69.6V70c0,38.7,31.3,70,70,70s70-31.3,70-70v-0.4
		C139.8,108.1,108.5,139.2,70,139.2z"/>
	<g id="Clipped">
		<g id="a">
		</g>
		
			<linearGradient id="Shape_7_" gradientUnits="userSpaceOnUse" x1="-15.2387" y1="-148.7587" x2="-14.4888" y2="-149.0751" gradientTransform="matrix(122.4682 0 0 -103.0909 1901.1138 -15260.8164)">
			<stop  offset="0" style="stop-color:#3E2723;stop-opacity:0.2"/>
			<stop  offset="1" style="stop-color:#3E2723;stop-opacity:2.000000e-02"/>
		</linearGradient>
		<path id="Shape_5_" class="st12" d="M111.4,50.9h-9.5v15.5h-9.5l-20-20l0,0c-5.5-5.2-12.7-8.3-21.3-8.3
			c-12.4,0-23.2,7.1-28.4,17.5c-2.2,4.3-3.4,9.1-3.4,14.3s1.2,10,3.4,14.3c1.7,3.3,3.9,6.3,6.6,8.8l8.8,8.8l39.3,39.3l53.2-10.8
			L141.7,81L111.4,50.9z"/>
	</g>
	<polyline id="Shape_6_" class="st13" points="124.1,63.6 111.4,63.6 111.4,50.9 101.8,50.9 101.8,63.6 89.1,63.6 89.1,73.2 
		101.8,73.2 101.8,85.9 111.4,85.9 111.4,73.2 124.1,73.2 	"/>
	<path id="Shape_9_" class="st14" d="M101.8,50.9h9.5v0.8h-9.5V50.9z M89.1,63.6h12.7v0.8H89.1V63.6z M111.4,63.6h12.7v0.8h-12.7
		V63.6z"/>
	<path id="Shape_10_" class="st15" d="M101.8,85.9h9.5v0.8h-9.5V85.9z M89.1,73.2h12.7V74H89.1V73.2z M111.4,73.2h12.7V74h-12.7
		V73.2z"/>
	<path id="Shape_11_" class="st13" d="M50.9,76V64.2h29.8c0.4,2,0.8,3.9,0.8,6.5c0,18.2-12.2,31.1-30.5,31.1
		c-17.6,0-31.8-14.3-31.8-31.8S33.5,38.2,51,38.2c8.6,0,15.8,3.1,21.3,8.3l-9,8.8c-2.3-2.2-6.3-4.7-12.2-4.7
		C40.6,50.6,32,59.4,32,70.1s8.6,19.5,19.1,19.5c12.2,0,16.7-8.4,17.5-13.4L50.9,76L50.9,76z"/>
	<path id="Shape_12_" class="st14" d="M50.9,90.3c12.2,0,16.7-8.4,17.5-13.4h-0.2c-1.1,5.1-5.8,12.6-17.3,12.6
		C40.5,89.5,32,81,31.8,70.4c0,0.1,0,0.3,0,0.4C31.8,81.6,40.4,90.3,50.9,90.3z M50.9,65h29.8c0.4,1.9,0.7,3.7,0.8,6v-0.4
		c0-2.6-0.3-4.5-0.8-6.5H50.9V65z M50.9,39c8.4,0,15.4,3,20.8,7.9l0.4-0.4c-5.5-5.2-12.7-8.3-21.3-8.3C33.2,38.2,19,52.5,19,70
		c0,0.1,0,0.3,0,0.4C19.3,53,33.5,39,50.9,39z"/>
	<path id="Shape_13_" class="st15" d="M50.9,50.5c-10.5,0-19.1,8.8-19.1,19.5c0,0.1,0,0.3,0,0.4c0.2-10.6,8.7-19.1,19.1-19.1
		c6,0,10,2.6,12.2,4.7l9-8.8c-0.1-0.1-0.3-0.3-0.4-0.4l-8.6,8.3C60.9,53.1,56.9,50.5,50.9,50.5z M50.9,101.8
		c-17.4,0-31.6-14-31.8-31.4c0,0.1,0,0.3,0,0.4c0,17.6,14.3,31.8,31.8,31.8c18.4,0,30.5-12.9,30.5-31.1v-0.4
		C81.3,89.1,69.2,101.8,50.9,101.8z M50.9,76v0.8h17.3c0.1-0.3,0.1-0.5,0.2-0.8H50.9z"/>
	
		<radialGradient id="Oval_2_" cx="-15.0941" cy="-152.9092" r="0.9482" gradientTransform="matrix(140 0 0 -140 2145 -21389)" gradientUnits="userSpaceOnUse">
		<stop  offset="0" style="stop-color:#FFFFFF;stop-opacity:0.1"/>
		<stop  offset="1" style="stop-color:#FFFFFF;stop-opacity:0"/>
	</radialGradient>
	<circle id="Oval_1_" class="st16" cx="70" cy="70" r="70"/>
</g>
<g id="Group" transform="translate(0.000000, 1288.000000)">
	<rect id="Rectangle_7_" class="st0" width="180" height="180"/>
	<g id="Roblox" transform="translate(20.000000, 20.000000)">
		<path id="Fill-1_2_" class="st17" d="M28.7,0L0,111.3L111.3,140L140,28.7L28.7,0L28.7,0z M56.3,78.1l5.6-21.7L83.6,62L78,83.7
			L56.3,78.1z"/>
	</g>
</g>
</svg>
