<?xml version="1.0" encoding="UTF-8"?>
<svg width="160px" height="1144px" viewBox="0 0 160 1144" version="1.1" xmlns="http://www.w3.org/2000/svg" xmlns:xlink="http://www.w3.org/1999/xlink" preserveAspectRatio="none">
    <!-- Generator: Sketch Beta 52.5 (67469) - http://www.bohemiancoding.com/sketch -->
    <title>SmallIcon</title>
    <desc>Created with Sketch Beta.</desc>
    <defs>
        <linearGradient x1="50%" y1="0%" x2="50%" y2="100%" id="linearGradient-1">
            <stop stop-color="#FFFFFF" offset="0%"></stop>
            <stop stop-color="#D8D8D8" offset="100%"></stop>
        </linearGradient>
        <polygon id="path-2" points="0 -3.55271368e-15 144.795556 -3.55271368e-15 144.795556 141.220444 0 141.220444"></polygon>
    </defs>
    <g id="SmallIcon" stroke="none" stroke-width="1" fill="none" fill-rule="evenodd">
        <g id="OldSocialNetworksIcons">
            <g id="social/twitch" transform="translate(0.000000, 492.000000)">
                <rect id="Base" fill="#6441A4" x="0" y="0" width="160" height="160" rx="8"></rect>
                <path d="M34.4278607,26.6666667 L26.6666667,46.5008292 L26.6666667,127.562189 L54.2620232,127.562189 L54.2620232,142.222222 L69.7844113,142.222222 L84.4444444,127.562189 L106.865672,127.562189 L137.048093,97.3797678 L137.048093,26.6666667 L34.4278607,26.6666667 Z M126.699834,92.2056385 L109.452736,109.452736 L81.8573798,109.452736 L67.1973466,124.112769 L67.1973466,109.452736 L43.9137645,109.452736 L43.9137645,37.0149254 L126.699834,37.0149254 L126.699834,92.2056385 Z M109.452736,56.8490879 L109.452736,87.0315091 L99.1044776,87.0315091 L99.1044776,56.8490879 L109.452736,56.8490879 Z M81.8573798,56.8490879 L81.8573798,87.0315091 L71.5091211,87.0315091 L71.5091211,56.8490879 L81.8573798,56.8490879 Z" id="Shape" fill="#FFFFFF"></path>
            </g>
            <g id="YouTube" transform="translate(0.000000, 328.000000)">
                <g id="social/youtube">
                    <rect id="Base" fill="#FF0000" x="0" y="0" width="160" height="160" rx="8"></rect>
                    <path d="M135.362929,52.7130808 C137.777778,61.7828788 137.777778,80.7070707 137.777778,80.7070707 C137.777778,80.7070707 137.777778,99.6306061 135.362929,108.701717 C134.03404,113.705404 130.118939,117.646111 125.146111,118.984192 C116.135404,121.414141 80,121.414141 80,121.414141 C80,121.414141 43.864596,121.414141 34.8532323,118.984192 C29.8810606,117.646111 25.965303,113.705404 24.6364141,108.701717 C22.2222222,99.6306061 22.2222222,80.7070707 22.2222222,80.7070707 C22.2222222,80.7070707 22.2222222,61.7828788 24.6364141,52.7130808 C25.965303,47.7087374 29.8810606,43.7680303 34.8532323,42.4306061 C43.864596,40 80,40 80,40 C80,40 116.135404,40 125.146111,42.4306061 C130.118939,43.7680303 134.03404,47.7087374 135.362929,52.7130808 Z M68.1816212,97.888803 L98.3836414,80.7077929 L68.1816212,63.5254697 L68.1816212,97.888803 Z" id="Combined-Shape" fill="#FFFFFF"></path>
                </g>
                <polygon id="The_Sharpness" fill="#000000" fill-rule="nonzero" opacity="0.12" points="68.8 64.3 94.4 81.4 98 79.5"></polygon>
                <g id="Lozenge" transform="translate(26.000000, 42.000000)" fill="#FFFFFF" fill-rule="nonzero">
                    <path d="M106.9,17.1 C106.9,17.1 105.8,9.7 102.6,6.4 C98.5,2.1 93.9,2.1 91.8,1.8 C76.7,0.7 54.1,0.7 54.1,0.7 C54.1,0.7 31.5,0.7 16.4,1.8 C14.3,2.1 9.7,2.1 5.6,6.4 C2.4,9.7 1.3,17.1 1.3,17.1 C1.3,17.1 0.2,25.8 0.2,34.6 L0.2,42.8 C0.2,51.5 1.3,60.3 1.3,60.3 C1.3,60.3 2.4,67.7 5.6,71 C9.7,75.3 15.1,75.2 17.5,75.6 C26.1,76.4 54.2,76.7 54.2,76.7 C54.2,76.7 76.9,76.7 92,75.6 C94.1,75.3 98.7,75.3 102.8,71 C106,67.7 107.1,60.3 107.1,60.3 C107.1,60.3 108.2,51.6 108.2,42.8 L108.2,34.6 C107.9,25.8 106.9,17.1 106.9,17.1 Z M42.9,52.7 L42.9,22.4 L72.1,37.6 L42.9,52.7 Z" id="Shape"></path>
                </g>
            </g>
            <g id="social/twitter" transform="translate(0.000000, 164.000000)">
                <rect id="Base" fill="#1DA1F2" x="0" y="0" width="160" height="160" rx="8"></rect>
                <path d="M58.5211863,127.294473 C102.126184,127.294473 125.986395,91.1342315 125.986395,59.829265 C125.986395,58.8119692 125.986395,57.7946734 125.940154,56.7773776 C130.564226,53.4480459 134.587168,49.2401405 137.777778,44.4773465 C133.523632,46.373216 128.945801,47.6217154 124.136766,48.2228447 C129.038282,45.3096794 132.78378,40.6393669 134.587168,35.0904806 C130.009337,37.818683 124.922858,39.7607932 119.512694,40.8243297 C115.166066,36.2002579 109.016051,33.3333333 102.218665,33.3333333 C89.1325419,33.3333333 78.4971766,43.9686986 78.4971766,57.0548219 C78.4971766,58.9044507 78.7283802,60.7078387 79.098306,62.464986 C59.3997599,61.4939309 41.9207683,52.0145836 30.2218665,37.6799609 C28.1872749,41.1942555 27.0312569,45.2634387 27.0312569,49.6100662 C27.0312569,57.8409141 31.2391623,65.1007069 37.5741408,69.3548531 C33.6899204,69.2161309 30.0369037,68.1525944 26.8462941,66.3954471 C26.8462941,66.4879285 26.8462941,66.5804099 26.8462941,66.7191321 C26.8462941,78.1868303 35.0309012,87.8048997 45.8512294,89.9782135 C43.8628785,90.5331021 41.7820462,90.8105464 39.6087324,90.8105464 C38.0827887,90.8105464 36.6030857,90.6718243 35.1696234,90.39438 C38.1752701,99.8274866 46.9610066,106.671113 57.3189276,106.856076 C49.1805611,113.237295 38.9613623,117.029034 27.8635899,117.029034 C25.9677204,117.029034 24.071851,116.936552 22.2222222,116.705349 C32.6726246,123.364012 45.1576186,127.294473 58.5211863,127.294473" id="twitter" fill="#FFFFFF"></path>
            </g>
            <g id="social/facebook">
                <rect id="Base" fill="#4267B5" x="0" y="0" width="160" height="160" rx="8"></rect>
                <path d="M87.5789474,159.981287 L87.5789474,98.2269006 L66.6666667,98.2269006 L66.6666667,73.8900585 L87.4666667,73.8900585 L87.4666667,56.1216374 C87.4666667,35.4339181 100.070175,24.1777778 118.512281,24.1777778 C124.777192,24.1963917 131.036552,24.5524631 137.263158,25.2444444 L137.263158,46.8304094 L124.519298,46.8304094 C114.498246,46.8304094 112.561404,51.574269 112.561404,58.5637427 L112.561404,74.0023392 L136.561404,74.0023392 L133.445614,98.2269006 L112.561404,98.2269006 L112.561404,159.981287 L87.5789474,159.981287 Z" id="facebook" fill="#FFFFFF"></path>
            </g>
        </g>
        <g id="social/discord" transform="translate(0.000000, 656.000000)">
            <rect id="Base" fill="#7289DA" x="0" y="0" width="160" height="160" rx="8"></rect>
            <path d="M119.266667,26.6666667 L41.8444444,26.6666667 C35.3155556,26.6666667 30,31.9822222 30,38.5688889 L30,116.684444 C30,123.271111 35.3155556,128.586667 41.8444444,128.586667 L107.364444,128.586667 L104.302222,117.897778 L111.697778,124.773333 L118.688889,131.244444 L131.111111,142.222222 L131.111111,38.5688889 C131.111111,31.9822222 125.795556,26.6666667 119.266667,26.6666667 Z M96.9644444,102.124444 C96.9644444,102.124444 94.8844444,99.64 93.1511111,97.4444444 C100.72,95.3066667 103.608889,90.5688889 103.608889,90.5688889 C101.24,92.1288889 98.9866667,93.2266667 96.9644444,93.9777778 C94.0755556,95.1911111 91.3022222,96 88.5866667,96.4622222 C83.04,97.5022222 77.9555556,97.2133333 73.6222222,96.4044444 C70.3288889,95.7688889 67.4977778,94.8444444 65.1288889,93.92 C63.8,93.4 62.3555556,92.7644444 60.9111111,91.9555556 C60.7377778,91.84 60.5644444,91.7822222 60.3911111,91.6666667 C60.2755556,91.6088889 60.2177778,91.5511111 60.16,91.4933333 C59.12,90.9155556 58.5422222,90.5111111 58.5422222,90.5111111 C58.5422222,90.5111111 61.3155556,95.1333333 68.6533333,97.3288889 C66.92,99.5244444 64.7822222,102.124444 64.7822222,102.124444 C52.0133333,101.72 47.16,93.3422222 47.16,93.3422222 C47.16,74.7377778 55.48,59.6577778 55.48,59.6577778 C63.8,53.4177778 71.7155556,53.5911111 71.7155556,53.5911111 L72.2933333,54.2844444 C61.8933333,57.2888889 57.0977778,61.8533333 57.0977778,61.8533333 C57.0977778,61.8533333 58.3688889,61.16 60.5066667,60.1777778 C66.6888889,57.4622222 71.6,56.7111111 73.6222222,56.5377778 C73.9688889,56.48 74.2577778,56.4222222 74.6044444,56.4222222 C78.1288889,55.96 82.1155556,55.8444444 86.2755556,56.3066667 C91.7644444,56.9422222 97.6577778,58.56 103.666667,61.8533333 C103.666667,61.8533333 99.1022222,57.52 89.28,54.5155556 L90.0888889,53.5911111 C90.0888889,53.5911111 98.0044444,53.4177778 106.324444,59.6577778 C106.324444,59.6577778 114.644444,74.7377778 114.644444,93.3422222 C114.644444,93.3422222 109.733333,101.72 96.9644444,102.124444 Z M70.0977778,75.1422222 C66.8044444,75.1422222 64.2044444,78.0311111 64.2044444,81.5555556 C64.2044444,85.08 66.8622222,87.9688889 70.0977778,87.9688889 C73.3911111,87.9688889 75.9911111,85.08 75.9911111,81.5555556 C76.0488889,78.0311111 73.3911111,75.1422222 70.0977778,75.1422222 Z M91.1866667,75.1422222 C87.8933333,75.1422222 85.2933333,78.0311111 85.2933333,81.5555556 C85.2933333,85.08 87.9511111,87.9688889 91.1866667,87.9688889 C94.48,87.9688889 97.08,85.08 97.08,81.5555556 C97.08,78.0311111 94.48,75.1422222 91.1866667,75.1422222 Z" id="discord" fill="#FFFFFF"></path>
        </g>
        <g id="social/robloxgroup" transform="translate(0.000000, 820.000000)">
            <rect id="Base" fill="url(#linearGradient-1)" x="0" y="0" width="160" height="160" rx="8"></rect>
            <g id="system-/-logo" transform="translate(22.222222, 22.222222)" fill="#656668">
                <path d="M23.7424777,0 L116,23.7424777 L92.2575223,116 L0,92.2575223 L23.7424777,0 Z M64.6830223,69.3170482 L69.3175597,51.308794 L51.3093054,46.6747681 L46.6747681,64.6825108 L64.6830223,69.3170482 Z" id="tilt"></path>
            </g>
        </g>
        <g id="social/github" transform="translate(0.000000, 984.000000)">
            <rect id="Base" fill="#181717" x="0" y="0" width="160" height="160" rx="8"></rect>
            <g id="Group-3" stroke-width="1" transform="translate(8.888889, 8.888889)">
                <mask id="mask-3" fill="white">
                    <use xlink:href="#path-2"></use>
                </mask>
                <g id="Clip-2"></g>
                <path d="M72.3937778,-3.55271368e-15 C32.416,-3.55271368e-15 -0.00177777778,32.4133333 -0.00177777778,72.4044444 C-0.00177777778,104.386667 20.7404444,131.52 49.5137778,141.097778 C53.136,141.76 54.456,139.524444 54.456,137.604444 C54.456,135.888889 54.3937778,131.333333 54.3582222,125.293333 C34.2204444,129.666667 29.9715556,115.586667 29.9715556,115.586667 C26.6782222,107.222222 21.9315556,105 21.9315556,105 C15.3582222,100.506667 22.4293333,100.595556 22.4293333,100.595556 C29.696,101.111111 33.5182222,108.057778 33.5182222,108.057778 C39.976,119.12 50.4604444,115.924444 54.5893333,114.075556 C55.2471111,109.395556 57.1137778,106.204444 59.1848889,104.395556 C43.1093333,102.568889 26.2071111,96.3555556 26.2071111,68.6133333 C26.2071111,60.7111111 29.0293333,54.2488889 33.6604444,49.1866667 C32.9137778,47.3555556 30.4293333,39.9955556 34.3671111,30.0266667 C34.3671111,30.0266667 40.4471111,28.08 54.2782222,37.4488889 C60.0515556,35.84 66.2471111,35.04 72.4026667,35.0088889 C78.5493333,35.04 84.7448889,35.84 90.5271111,37.4488889 C104.349333,28.08 110.416,30.0266667 110.416,30.0266667 C114.367111,39.9955556 111.882667,47.3555556 111.136,49.1866667 C115.776,54.2488889 118.580444,60.7111111 118.580444,68.6133333 C118.580444,96.4266667 101.651556,102.546667 85.5226667,104.337778 C88.1226667,106.573333 90.4382222,110.991111 90.4382222,117.746667 C90.4382222,127.422222 90.3493333,135.231111 90.3493333,137.604444 C90.3493333,139.542222 91.6515556,141.795556 95.3271111,141.088889 C124.069333,131.493333 144.798222,104.377778 144.798222,72.4044444 C144.798222,32.4133333 112.380444,-3.55271368e-15 72.3937778,-3.55271368e-15" id="Fill-1" fill="#FFFFFF" mask="url(#mask-3)"></path>
            </g>
        </g>
    </g>
</svg>